<svg width="44" height="48" viewBox="0 0 44 48" fill="none" xmlns="http://www.w3.org/2000/svg">
<g clip-path="url(#clip0_215_572)">
<path d="M18.6825 0H6.62854L0.601562 10.4393L6.62854 20.8776H18.6825L24.7115 10.4393L18.6825 0ZM18.1505 19.798L18.105 19.8767H7.20712L1.75769 10.4393L7.20712 1.00087H7.2982L8.53299 3.14028L9.84955 0.863214H10.0224L8.61994 3.29036L9.28235 4.43717L11.3462 0.861144H11.578L9.3931 4.63693L10.0141 5.70819L12.8087 0.861144H13.1554L10.189 6.01249L10.75 6.98438L14.2826 0.865285H14.7452L10.9808 7.38597L11.4911 8.26989L15.7658 0.867354H16.3433L11.7809 8.77084L12.226 9.54194L17.2335 0.867354H17.928L12.5727 10.1423L13.0012 10.8854L18.3668 1.59187L18.8295 2.39195L13.4639 11.6855L18.1505 19.798Z" fill="#20201B"/>
</g>
<path d="M1.61337 42.678V31.8533H3.36396V35.8042C3.69588 35.5365 4.09204 35.3223 4.55244 35.1617C5.01284 34.9904 5.53213 34.9048 6.11031 34.9048C7.07393 34.9048 7.78595 35.135 8.24635 35.5954C8.70675 36.0558 8.93695 36.7731 8.93695 37.7475V42.678H7.20242V37.8278C7.20242 37.2389 7.07393 36.8267 6.81697 36.5911C6.57071 36.3556 6.13707 36.2378 5.51607 36.2378C5.13062 36.2378 4.73981 36.3234 4.34365 36.4948C3.94749 36.6554 3.62093 36.8695 3.36396 37.1372V42.678H1.61337ZM14.596 42.8386C13.2683 42.8386 12.2405 42.5121 11.5124 41.859C10.7843 41.2058 10.4203 40.2047 10.4203 38.8556C10.4203 37.6351 10.7308 36.6714 11.3518 35.9648C11.9728 35.2581 12.915 34.9048 14.1784 34.9048C15.3348 34.9048 16.2021 35.2099 16.7802 35.8202C17.3691 36.4198 17.6636 37.1961 17.6636 38.149V39.5623H12.0906C12.1762 40.3011 12.4439 40.8097 12.8936 41.0881C13.3433 41.3664 14.0285 41.5056 14.9493 41.5056C15.3348 41.5056 15.7309 41.4682 16.1378 41.3932C16.5447 41.3183 16.898 41.2219 17.1978 41.1041V42.389C16.8552 42.5388 16.459 42.6513 16.0093 42.7262C15.5703 42.8012 15.0992 42.8386 14.596 42.8386ZM12.0906 38.422H16.1218V37.892C16.1218 37.3674 15.9772 36.9605 15.6881 36.6714C15.399 36.3716 14.9119 36.2217 14.2266 36.2217C13.4129 36.2217 12.8508 36.3984 12.5403 36.7517C12.2405 37.1051 12.0906 37.6618 12.0906 38.422ZM18.1163 42.678L21.0232 38.8075L18.2287 35.0654H20.1078L21.9708 37.6029L23.8338 35.0654H25.7129L22.9344 38.8075L25.8253 42.678H23.9302L21.9708 40.0281L20.0114 42.678H18.1163ZM28.975 42.8386C28.4932 42.8386 28.0435 42.753 27.6259 42.5817C27.2191 42.4104 26.8925 42.1534 26.6463 41.8108C26.4 41.4574 26.2769 41.0238 26.2769 40.5099C26.2769 39.7818 26.5231 39.1983 27.0156 38.7593C27.5189 38.3096 28.2898 38.0847 29.3284 38.0847H31.7695V37.7475C31.7695 37.3834 31.7107 37.0943 31.5929 36.8802C31.4858 36.6661 31.2824 36.5108 30.9826 36.4145C30.6935 36.3181 30.2652 36.2699 29.6977 36.2699C28.7984 36.2699 27.9579 36.4037 27.1763 36.6714V35.3705C27.5189 35.2313 27.9364 35.1189 28.429 35.0333C28.9215 34.9476 29.4515 34.9048 30.019 34.9048C31.1325 34.9048 31.9783 35.1296 32.5565 35.5793C33.1454 36.029 33.4398 36.7624 33.4398 37.7796V42.678H31.9462L31.8338 41.9071C31.5233 42.2069 31.1378 42.4371 30.6774 42.5977C30.2277 42.7583 29.6603 42.8386 28.975 42.8386ZM29.4408 41.5859C29.9654 41.5859 30.4205 41.5003 30.8059 41.329C31.2021 41.1469 31.5233 40.906 31.7695 40.6062V39.2732H29.3605C28.8465 39.2732 28.4718 39.3749 28.2362 39.5784C28.0114 39.7711 27.899 40.0709 27.899 40.4778C27.899 40.8739 28.0328 41.1576 28.3005 41.329C28.5682 41.5003 28.9483 41.5859 29.4408 41.5859ZM37.7581 42.8386C37.2763 42.8386 36.8266 42.753 36.409 42.5817C36.0022 42.4104 35.6756 42.1534 35.4293 41.8108C35.1831 41.4574 35.0599 41.0238 35.0599 40.5099C35.0599 39.7818 35.3062 39.1983 35.7987 38.7593C36.3019 38.3096 37.0729 38.0847 38.1114 38.0847H40.5526V37.7475C40.5526 37.3834 40.4937 37.0943 40.376 36.8802C40.2689 36.6661 40.0655 36.5108 39.7657 36.4145C39.4766 36.3181 39.0483 36.2699 38.4808 36.2699C37.5814 36.2699 36.7409 36.4037 35.9593 36.6714V35.3705C36.3019 35.2313 36.7195 35.1189 37.212 35.0333C37.7046 34.9476 38.2346 34.9048 38.802 34.9048C39.9156 34.9048 40.7614 35.1296 41.3396 35.5793C41.9285 36.029 42.2229 36.7624 42.2229 37.7796V42.678H40.7293L40.6169 41.9071C40.3064 42.2069 39.9209 42.4371 39.4605 42.5977C39.0108 42.7583 38.4433 42.8386 37.7581 42.8386ZM38.2239 41.5859C38.7485 41.5859 39.2035 41.5003 39.589 41.329C39.9852 41.1469 40.3064 40.906 40.5526 40.6062V39.2732H38.1436C37.6296 39.2732 37.2549 39.3749 37.0193 39.5784C36.7945 39.7711 36.682 40.0709 36.682 40.4778C36.682 40.8739 36.8159 41.1576 37.0836 41.329C37.3512 41.5003 37.7313 41.5859 38.2239 41.5859Z" fill="#20201B"/>
<defs>
<clipPath id="clip0_215_572">
<rect width="24.1079" height="20.8786" fill="white" transform="translate(0.601562)"/>
</clipPath>
</defs>
</svg>
