<svg width="82" height="31" viewBox="0 0 82 31" fill="none" xmlns="http://www.w3.org/2000/svg">
<path d="M9.13605 1.32658L24.6561 5.73553V21.1781L9.13605 16.7671V1.32658ZM8.14062 0.00817784V17.5193L25.6495 22.4945V4.9772L8.14062 0V0.00817784Z" fill="#20201B"/>
<path d="M17.5187 30.6213L0.0078125 25.6441V8.13495L17.5187 13.1101V30.6213Z" fill="#20201B"/>
<path d="M8.42738 1.12626L23.7451 5.47799L17.2309 11.9943L1.90091 7.64056L8.41716 1.12626M8.12692 0.00817784L0 8.13522L17.5109 13.1104L25.646 4.9772L8.13714 0L8.12692 0.00817784Z" fill="#20201B"/>
<path d="M18.5078 29.6363L25.6475 22.4944L18.5078 20.4647V29.6363Z" fill="#20201B"/>
<path d="M38.5654 10.1881H35.8532V14.3438H40.0819L40.3881 12.4045C40.5825 12.3656 40.7526 12.3802 40.8985 12.4482C41.0346 13.0218 41.0929 13.8724 41.0734 15H35.1242C34.7353 15 34.0889 15.0243 33.1848 15.0729C33.1557 14.8882 33.1654 14.7181 33.214 14.5626C33.7195 14.4653 34.0889 14.3681 34.3222 14.2709V5.52199L33.1994 5.23036C33.1702 5.04566 33.1945 4.87555 33.2723 4.72001C34.1472 4.76861 34.7402 4.79292 35.0513 4.79292H40.6652C40.6846 5.78446 40.6311 6.63505 40.5048 7.34469C40.3589 7.40301 40.184 7.41759 39.9798 7.38843L39.6007 5.44909H35.8532V9.3861H38.5654L38.8425 8.10293C39.066 8.03488 39.2605 8.05918 39.4257 8.17584C39.3868 8.55496 39.3674 9.07503 39.3674 9.73606C39.3674 10.4651 39.3868 11.0387 39.4257 11.4567C39.2507 11.5247 39.0563 11.5345 38.8425 11.4858L38.5654 10.1881ZM44.4272 7.68006L44.4126 8.26332L44.4855 8.33623C45.1757 7.72381 45.9048 7.41759 46.6728 7.41759C47.5963 7.42732 48.3302 7.79185 48.8746 8.51121C49.4189 9.23057 49.696 10.1152 49.7057 11.1651C49.7057 12.4968 49.3752 13.5175 48.7142 14.2272C48.0629 14.9271 47.1491 15.277 45.9728 15.277C45.5062 15.2673 45.0105 15.1604 44.4855 14.9563V17.9163L45.7541 18.2079C45.7833 18.3926 45.759 18.5628 45.6812 18.7183C44.8063 18.6697 44.1647 18.6454 43.7564 18.6454C43.3773 18.6454 42.7843 18.6697 41.9775 18.7183C41.9483 18.5336 41.9581 18.3635 42.0067 18.2079C42.4733 18.1107 42.8135 18.0135 43.0274 17.9163V8.58412L41.8317 8.46747C41.8025 8.27305 41.8268 8.10293 41.9046 7.95711C42.3226 7.90851 42.9933 7.77727 43.9168 7.56341C44.0724 7.57313 44.2425 7.61202 44.4272 7.68006ZM44.4855 9.10905V14.1397C44.9424 14.4508 45.4285 14.6063 45.9437 14.6063C46.663 14.6063 47.2123 14.3147 47.5914 13.7314C47.9705 13.1481 48.1601 12.3219 48.1601 11.2525C48.1601 10.2707 47.99 9.53192 47.6497 9.03615C47.3095 8.54037 46.838 8.29249 46.2353 8.29249C45.8951 8.29249 45.5548 8.37998 45.2146 8.55496C44.8744 8.72021 44.6313 8.90491 44.4855 9.10905ZM51.2501 5.24494C51.2501 5.06024 51.3619 4.87068 51.5855 4.67626C51.8091 4.48184 52.0424 4.38463 52.2854 4.38463C52.5284 4.38463 52.7374 4.49642 52.9124 4.72001C53.0874 4.93387 53.1749 5.15259 53.1749 5.37618C53.1749 5.5706 53.0631 5.76502 52.8395 5.95944C52.6256 6.14414 52.3923 6.23649 52.1396 6.23649C51.916 6.23649 51.7119 6.12956 51.5272 5.9157C51.3425 5.69211 51.2501 5.46853 51.2501 5.24494ZM53.2624 7.72381V14.2709L54.2393 14.5626C54.2685 14.7473 54.2442 14.9174 54.1664 15.0729C53.2915 15.0243 52.7471 15 52.5333 15C52.2417 15 51.6487 15.0243 50.7543 15.0729C50.7252 14.8882 50.7349 14.7181 50.7835 14.5626C51.3279 14.4362 51.6681 14.339 51.8042 14.2709V8.58412L50.5939 8.46747C50.5648 8.27305 50.5891 8.10293 50.6668 7.95711C51.4737 7.84046 52.1542 7.70923 52.7083 7.56341C52.8735 7.57313 53.0582 7.6266 53.2624 7.72381ZM57.4916 15.2333C56.9472 15.2333 56.5341 15.0778 56.2521 14.7667C55.98 14.4556 55.8439 13.955 55.8439 13.2648V8.61328H54.8232C54.7259 8.42858 54.7016 8.20986 54.7502 7.95711C55.2946 7.96683 55.6737 7.8599 55.8876 7.63632C56.1112 7.40301 56.3153 6.91696 56.5 6.17816H57.2729V7.8113H58.8039C58.94 8.09321 58.94 8.36053 58.8039 8.61328H57.2729V12.9003C57.2729 13.5516 57.3215 13.9842 57.4187 14.198C57.5256 14.4119 57.72 14.5139 58.0019 14.5042C58.245 14.5042 58.5366 14.407 58.8768 14.2126C59.0129 14.3001 59.0858 14.4459 59.0956 14.65C58.9692 14.7959 58.7602 14.9271 58.4685 15.0437C58.1866 15.1701 57.861 15.2333 57.4916 15.2333ZM59.7407 11.3546C59.7407 10.1395 60.0955 9.1771 60.8051 8.46747C61.5148 7.75783 62.3848 7.40787 63.4152 7.41759C64.5429 7.41759 65.4372 7.79185 66.0982 8.54037C66.7593 9.28889 67.0898 10.227 67.0898 11.3546C67.0898 12.5892 66.7398 13.5564 66.0399 14.2563C65.34 14.9563 64.4651 15.3014 63.4152 15.2916C62.2584 15.2916 61.3544 14.9174 60.7031 14.1689C60.0615 13.4203 59.7407 12.4823 59.7407 11.3546ZM65.515 11.5588C65.5344 10.6353 65.3691 9.81869 65.0192 9.10905C64.6692 8.39942 64.1249 8.0446 63.3861 8.0446C62.6667 8.0446 62.1369 8.36053 61.7967 8.9924C61.4662 9.61455 61.3058 10.436 61.3155 11.4567C61.3155 11.9039 61.3544 12.3219 61.4321 12.7107C61.5196 13.0995 61.6509 13.4398 61.8258 13.7314C62.0008 14.023 62.2195 14.2515 62.482 14.4167C62.7542 14.582 63.075 14.6646 63.4444 14.6646C64.0471 14.6743 64.5429 14.4313 64.9317 13.9355C65.3205 13.4398 65.515 12.6475 65.515 11.5588ZM70.4752 7.69464L70.4314 8.68619L70.446 8.70077C71.2237 7.90365 72.0889 7.49536 73.0415 7.47592C74.0234 7.48564 74.6601 7.89393 74.9517 8.70077C75.6808 7.87448 76.5022 7.4662 77.416 7.47592C78.0576 7.47592 78.5582 7.66062 78.9179 8.03002C79.2776 8.3897 79.4574 8.90977 79.4574 9.59025L79.472 14.2709L80.4927 14.5626C80.5219 14.7473 80.4976 14.9174 80.4198 15.0729C79.5449 15.0243 78.986 15 78.7429 15C78.4902 15 77.9166 15.0243 77.0223 15.0729C76.9931 14.8882 77.0029 14.7181 77.0515 14.5626C77.3528 14.5042 77.6736 14.407 78.0139 14.2709V10.2464C78.0139 9.60483 77.9118 9.15766 77.7076 8.90491C77.5132 8.65217 77.1876 8.52579 76.7307 8.52579C76.1766 8.53551 75.6273 8.85145 75.083 9.47359L75.0975 14.2709L76.1183 14.5626C76.1474 14.7473 76.1231 14.9174 76.0453 15.0729C75.2385 15.0243 74.6795 15 74.3685 15C74.0671 15 73.4936 15.0243 72.6478 15.0729C72.6187 14.8882 72.6284 14.7181 72.677 14.5626C72.9784 14.5042 73.2992 14.407 73.6394 14.2709V10.2464C73.6394 9.60483 73.5373 9.1528 73.3332 8.89033C73.1388 8.62786 72.8131 8.49663 72.3562 8.49663C71.8216 8.50635 71.2189 8.79798 70.5481 9.37152V14.2709L71.5251 14.5626C71.5542 14.7473 71.5299 14.9174 71.4522 15.0729C70.6745 15.0243 70.1301 15 69.819 15C69.4691 15 68.8761 15.0243 68.0401 15.0729C68.0109 14.8882 68.0206 14.7181 68.0692 14.5626C68.5358 14.4459 68.8761 14.3487 69.0899 14.2709V8.58412L67.8797 8.46747C67.8505 8.27305 67.8748 8.10293 67.9526 7.95711C68.7011 7.83074 69.3767 7.6995 69.9794 7.56341C70.1447 7.57313 70.3099 7.61688 70.4752 7.69464Z" fill="#20201B"/>
<path d="M33.3136 28H32.8061L34.7349 22.6976H35.2528L37.1816 28H36.6741L35.012 23.3268H34.9757L33.3136 28ZM33.6786 25.9676H36.3091V26.4026H33.6786V25.9676ZM39.5117 29.5741C39.2408 29.5741 39.0034 29.5388 38.7998 29.468C38.5961 29.399 38.4243 29.304 38.2845 29.1832C38.1447 29.0624 38.036 28.9269 37.9583 28.7767L38.3363 28.5282C38.3933 28.6283 38.4692 28.7267 38.5642 28.8233C38.6608 28.92 38.7859 29.0002 38.9396 29.0641C39.0949 29.128 39.2856 29.1599 39.5117 29.1599C39.8639 29.1599 40.1478 29.0719 40.3635 28.8958C40.581 28.7198 40.6898 28.4462 40.6898 28.0751V27.1793H40.6483C40.5948 27.3001 40.518 27.4209 40.4179 27.5417C40.3178 27.6608 40.1866 27.7601 40.0244 27.8395C39.8639 27.9189 39.6645 27.9586 39.4263 27.9586C39.1087 27.9586 38.8265 27.88 38.5797 27.723C38.3346 27.5659 38.1413 27.3415 37.9997 27.0498C37.8599 26.7564 37.79 26.4069 37.79 26.0013C37.79 25.5991 37.8582 25.2452 37.9946 24.9397C38.1326 24.6342 38.3251 24.396 38.5719 24.2252C38.8187 24.0543 39.1061 23.9688 39.4341 23.9688C39.6774 23.9688 39.8794 24.012 40.0399 24.0983C40.2004 24.1829 40.329 24.2882 40.4257 24.4142C40.5241 24.5402 40.6009 24.6627 40.6561 24.7818H40.7027V24.0232H41.1532V28.1036C41.1532 28.4401 41.0816 28.7172 40.9383 28.9346C40.7951 29.1521 40.6 29.3127 40.3532 29.4162C40.1064 29.5215 39.8259 29.5741 39.5117 29.5741ZM39.4807 27.5366C39.7361 27.5366 39.9545 27.4753 40.1357 27.3527C40.3169 27.2285 40.4559 27.0507 40.5525 26.8194C40.6492 26.5881 40.6975 26.3128 40.6975 25.9935C40.6975 25.6828 40.6501 25.4075 40.5551 25.1676C40.4602 24.9259 40.3221 24.7361 40.1409 24.598C39.9614 24.4582 39.7413 24.3883 39.4807 24.3883C39.2149 24.3883 38.9905 24.4599 38.8075 24.6032C38.6246 24.7464 38.4865 24.9397 38.3933 25.1831C38.3001 25.4248 38.2535 25.6949 38.2535 25.9935C38.2535 26.2973 38.3009 26.5657 38.3959 26.7987C38.4908 27.03 38.6297 27.2112 38.8127 27.3424C38.9957 27.4718 39.2183 27.5366 39.4807 27.5366ZM43.9811 28.0828C43.61 28.0828 43.289 27.9965 43.018 27.8239C42.747 27.6496 42.5373 27.4088 42.3888 27.1016C42.2421 26.7926 42.1688 26.4371 42.1688 26.0349C42.1688 25.6345 42.2421 25.2789 42.3888 24.9682C42.5373 24.6558 42.7418 24.4116 43.0024 24.2355C43.2648 24.0577 43.5677 23.9688 43.9112 23.9688C44.1269 23.9688 44.3349 24.0085 44.5352 24.0879C44.7354 24.1656 44.9149 24.2856 45.0737 24.4478C45.2342 24.6083 45.3611 24.8111 45.4543 25.0562C45.5475 25.2996 45.5941 25.5879 45.5941 25.921V26.1488H42.4872V25.7423H45.1229C45.1229 25.4869 45.0711 25.2573 44.9675 25.0537C44.8657 24.8483 44.7233 24.686 44.5403 24.5669C44.3591 24.4478 44.1494 24.3883 43.9112 24.3883C43.6592 24.3883 43.4374 24.4556 43.2458 24.5902C43.0542 24.7248 42.9041 24.9026 42.7953 25.1236C42.6883 25.3445 42.6339 25.5861 42.6322 25.8485V26.0919C42.6322 26.4077 42.6866 26.6839 42.7953 26.9204C42.9058 27.1551 43.062 27.3372 43.2639 27.4667C43.4659 27.5961 43.7049 27.6608 43.9811 27.6608C44.1692 27.6608 44.3341 27.6315 44.4756 27.5728C44.6189 27.5141 44.7388 27.4356 44.8355 27.3372C44.9339 27.2371 45.0081 27.1275 45.0581 27.0084L45.4957 27.1508C45.4353 27.3182 45.336 27.4727 45.198 27.6142C45.0616 27.7558 44.8907 27.8697 44.6853 27.956C44.4816 28.0406 44.2469 28.0828 43.9811 28.0828ZM47.0705 25.5145V28H46.6096V24.0232H47.0575V24.6472H47.099C47.1922 24.4435 47.3372 24.2804 47.5339 24.1578C47.7324 24.0336 47.9775 23.9714 48.2692 23.9714C48.5368 23.9714 48.7715 24.0275 48.9734 24.1397C49.1771 24.2502 49.335 24.4133 49.4472 24.6291C49.5612 24.8448 49.6181 25.1098 49.6181 25.4239V28H49.1573V25.4524C49.1573 25.1262 49.0658 24.8681 48.8828 24.6782C48.7016 24.4884 48.4582 24.3934 48.1527 24.3934C47.9439 24.3934 47.7583 24.4383 47.5961 24.5281C47.4338 24.6178 47.3052 24.7473 47.2103 24.9164C47.1171 25.0839 47.0705 25.2832 47.0705 25.5145ZM52.3852 28.0828C52.0296 28.0828 51.7198 27.994 51.4557 27.8162C51.1933 27.6384 50.9897 27.395 50.8447 27.0861C50.6997 26.7771 50.6272 26.425 50.6272 26.0297C50.6272 25.631 50.7006 25.2763 50.8473 24.9656C50.9957 24.6549 51.2011 24.4116 51.4635 24.2355C51.7258 24.0577 52.0305 23.9688 52.3774 23.9688C52.6432 23.9688 52.884 24.0206 53.0997 24.1242C53.3155 24.226 53.4933 24.3701 53.6331 24.5566C53.7746 24.7412 53.8635 24.957 53.8998 25.2038H53.4337C53.3854 24.9794 53.2689 24.7878 53.0842 24.6291C52.9012 24.4685 52.6682 24.3883 52.3852 24.3883C52.1314 24.3883 51.9071 24.4573 51.712 24.5954C51.517 24.7318 51.3642 24.9225 51.2537 25.1676C51.145 25.4109 51.0906 25.6932 51.0906 26.0142C51.0906 26.337 51.1441 26.6226 51.2512 26.8712C51.3582 27.118 51.5083 27.3113 51.7017 27.4511C51.8967 27.5909 52.1245 27.6608 52.3852 27.6608C52.5612 27.6608 52.7217 27.628 52.8667 27.5624C53.0134 27.4951 53.136 27.4002 53.2344 27.2777C53.3345 27.1551 53.4018 27.0093 53.4363 26.8401H53.9023C53.8678 27.08 53.7824 27.2941 53.646 27.4822C53.5114 27.6686 53.3362 27.8153 53.1205 27.9223C52.9064 28.0293 52.6613 28.0828 52.3852 28.0828ZM55.2111 29.4913C55.1196 29.4913 55.0342 29.4827 54.9548 29.4654C54.8754 29.4481 54.8124 29.4292 54.7658 29.4084L54.8901 29.002C55.0471 29.0503 55.187 29.0676 55.3095 29.0537C55.432 29.0417 55.5408 28.9864 55.6357 28.888C55.7307 28.7914 55.8152 28.6429 55.8894 28.4427L56.0344 28.0388L54.5716 24.0232H55.0713L56.2519 27.3916H56.2882L57.4688 24.0232H57.9685L56.2856 28.6291C56.2148 28.8207 56.1276 28.9804 56.0241 29.1081C55.9205 29.2376 55.8006 29.3334 55.6642 29.3955C55.5296 29.4594 55.3785 29.4913 55.2111 29.4913Z" fill="#20201B"/>
</svg>
