<svg width="28" height="31" viewBox="0 0 28 31" fill="none" xmlns="http://www.w3.org/2000/svg">
<path d="M10.4275 6.25029C10.4275 8.93212 8.25357 11.1061 5.57197 11.1061C2.89036 11.1061 0.716435 8.93212 0.716435 6.25029C0.716435 3.56846 2.89036 1.39447 5.57197 1.39447C8.25357 1.39447 10.4275 3.56846 10.4275 6.25029Z" stroke="#20201B" stroke-width="1.43287"/>
<path d="M21.5681 6.25029C21.5681 8.93212 19.3942 11.1061 16.7126 11.1061C14.031 11.1061 11.8571 8.93212 11.8571 6.25029C11.8571 3.56846 14.031 1.39447 16.7126 1.39447C19.3942 1.39447 21.5681 3.56846 21.5681 6.25029Z" stroke="#20201B" stroke-width="1.43287"/>
<path d="M21.7087 25.196C21.7087 27.8779 19.5348 30.0518 16.8532 30.0518C14.1716 30.0518 11.9977 27.8779 11.9977 25.196C11.9977 22.5142 14.1716 20.3402 16.8532 20.3402C19.5348 20.3402 21.7087 22.5142 21.7087 25.196Z" stroke="#20201B" stroke-width="1.43287"/>
<path d="M16.1384 15.723C16.1384 18.4048 13.9645 20.5788 11.2829 20.5788C8.6013 20.5788 6.42737 18.4048 6.42737 15.723C6.42737 13.0412 8.6013 10.8672 11.2829 10.8672C13.9645 10.8672 16.1384 13.0412 16.1384 15.723Z" stroke="#20201B" stroke-width="1.43287"/>
<path d="M27.2791 15.723C27.2791 18.4048 25.1051 20.5788 22.4235 20.5788C19.7419 20.5788 17.568 18.4048 17.568 15.723C17.568 13.0412 19.7419 10.8672 22.4235 10.8672C25.1051 10.8672 27.2791 13.0412 27.2791 15.723Z" stroke="#20201B" stroke-width="1.43287"/>
</svg>
