<svg width="59" height="18" viewBox="0 0 59 18" fill="none" xmlns="http://www.w3.org/2000/svg">
<path d="M8.36656 0.877891C8.92021 0.877891 9.47036 0.916436 10.017 0.993527C10.5707 1.06361 11.0998 1.15121 11.6044 1.25634C12.116 1.35445 12.5996 1.45257 13.0551 1.55068C13.5106 1.6488 13.9206 1.71888 14.285 1.76093C14.2009 2.01323 14.1589 2.45826 14.1589 3.09601C14.1589 4.33647 14.3446 5.41224 14.716 6.32332C14.674 6.44947 14.5443 6.52656 14.3271 6.55459L13.8751 5.58745C13.6508 5.10388 13.381 4.62732 13.0656 4.15776C12.7502 3.6812 12.3718 3.2572 11.9303 2.88576C11.4887 2.50731 10.9736 2.20245 10.3849 1.97118C9.80325 1.73991 9.13046 1.62427 8.36656 1.62427C7.70778 1.62427 7.12259 1.7329 6.61098 1.95016C6.09938 2.16741 5.65085 2.46176 5.2654 2.8332C4.87994 3.19763 4.55406 3.62513 4.28774 4.11571C4.02143 4.59928 3.80417 5.11439 3.63597 5.66104C3.47478 6.20768 3.35564 6.76834 3.27855 7.34302C3.20847 7.9177 3.17343 8.47486 3.17343 9.01449C3.17343 9.91155 3.28906 10.7701 3.52034 11.59C3.75862 12.41 4.12655 13.1354 4.62414 13.7661C5.12173 14.3898 5.75247 14.8874 6.51637 15.2589C7.28728 15.6303 8.20537 15.816 9.27062 15.816C11.31 15.816 12.8518 15.1783 13.8961 13.9028C14.0082 13.9028 14.0993 13.9343 14.1694 13.9974C14.2465 14.0604 14.285 14.1375 14.285 14.2286C13.9486 14.7262 13.5387 15.1572 13.0551 15.5217C12.5785 15.8861 12.0704 16.1875 11.5308 16.4257C10.9912 16.657 10.4445 16.8287 9.89085 16.9408C9.34421 17.053 8.83611 17.109 8.36656 17.109C7.85495 17.109 7.3013 17.053 6.70559 16.9408C6.1169 16.8357 5.5247 16.657 4.929 16.4047C4.3403 16.1524 3.77263 15.823 3.22599 15.4166C2.68635 15.0031 2.20628 14.4985 1.78579 13.9028C1.36529 13.3001 1.02889 12.5957 0.776597 11.7898C0.524299 10.9838 0.39815 10.0587 0.39815 9.01449C0.39815 7.96325 0.524299 7.03466 0.776597 6.22871C1.02889 5.41575 1.36529 4.70791 1.78579 4.1052C2.21329 3.50249 2.70037 2.99789 3.24701 2.59141C3.80067 2.17792 4.37184 1.84503 4.96054 1.59273C5.54923 1.33343 6.13792 1.15121 6.72662 1.04609C7.31531 0.933957 7.86196 0.877891 8.36656 0.877891ZM16.1142 8.02633C17.4738 7.88616 18.6582 7.59882 19.6674 7.16431C19.8426 7.23439 19.9652 7.3255 20.0353 7.43763C20.0353 11.0749 20.0634 13.675 20.1194 15.2378C20.1264 15.4201 20.179 15.5777 20.2771 15.7109C20.3822 15.837 20.5294 15.9352 20.7186 16.0052C20.9079 16.0753 21.0655 16.1279 21.1917 16.1629C21.3178 16.191 21.4825 16.219 21.6858 16.247C21.7278 16.3311 21.7488 16.4187 21.7488 16.5098C21.7488 16.6009 21.7278 16.678 21.6858 16.7411C20.7607 16.6991 19.8636 16.678 18.9946 16.678C18.1396 16.678 17.2495 16.6991 16.3244 16.7411C16.2964 16.629 16.2824 16.5519 16.2824 16.5098C16.2824 16.4748 16.2964 16.3872 16.3244 16.247C16.5557 16.219 16.7449 16.191 16.8921 16.1629C17.0393 16.1279 17.2215 16.0753 17.4388 16.0052C17.656 15.9352 17.8207 15.837 17.9328 15.7109C18.045 15.5777 18.1045 15.4201 18.1116 15.2378C18.1396 14.544 18.1536 13.703 18.1536 12.7149C18.1536 12.3855 18.1501 11.8248 18.1431 11.0329C18.1361 10.2409 18.1326 9.54712 18.1326 8.95142C17.7331 8.70613 17.0603 8.56246 16.1142 8.52041C16.0862 8.40828 16.0721 8.32068 16.0721 8.2576C16.0721 8.21555 16.0862 8.13846 16.1142 8.02633ZM17.7646 3.63214C17.7646 3.27472 17.8908 2.96986 18.1431 2.71756C18.4024 2.46526 18.7073 2.33912 19.0577 2.33912C19.4151 2.33912 19.72 2.46526 19.9723 2.71756C20.2246 2.96986 20.3507 3.27472 20.3507 3.63214C20.3507 3.98255 20.2246 4.28741 19.9723 4.54672C19.72 4.79902 19.4151 4.92517 19.0577 4.92517C18.7073 4.92517 18.4024 4.79902 18.1431 4.54672C17.8908 4.28741 17.7646 3.98255 17.7646 3.63214ZM23.1996 8.02633C24.5592 7.88616 25.7436 7.59882 26.7528 7.16431C26.928 7.23439 27.0506 7.3255 27.1207 7.43763V9.24577C27.38 8.75519 27.7655 8.27863 28.2771 7.81608C28.7957 7.35353 29.3353 7.12226 29.896 7.12226C30.3165 7.12226 30.6564 7.24841 30.9157 7.50071C31.182 7.746 31.3151 8.0859 31.3151 8.52041C31.3151 8.9339 31.1925 9.25628 30.9472 9.48755C30.7019 9.71883 30.3936 9.83446 30.0221 9.83446C29.6787 9.83446 29.3949 9.72583 29.1706 9.50858C28.9534 9.28431 28.8342 8.98997 28.8132 8.62554C28.5188 8.75168 28.1824 9.03201 27.804 9.46653C27.4326 9.90104 27.2048 10.332 27.1207 10.7596C27.1207 12.3224 27.1487 13.8152 27.2048 15.2378C27.2118 15.4201 27.2784 15.5777 27.4045 15.7109C27.5307 15.837 27.7164 15.9352 27.9617 16.0052C28.207 16.0753 28.4102 16.1279 28.5714 16.1629C28.7326 16.191 28.9428 16.219 29.2021 16.247C29.2442 16.3311 29.2652 16.4187 29.2652 16.5098C29.2652 16.5799 29.2442 16.657 29.2021 16.7411C28.1509 16.6991 27.1102 16.678 26.08 16.678C25.225 16.678 24.3349 16.6991 23.4098 16.7411C23.3818 16.629 23.3678 16.5519 23.3678 16.5098C23.3678 16.4748 23.3818 16.3872 23.4098 16.247C23.6411 16.219 23.8303 16.191 23.9775 16.1629C24.1247 16.1279 24.3069 16.0753 24.5241 16.0052C24.7414 15.9352 24.9061 15.837 25.0182 15.7109C25.1303 15.5777 25.1899 15.4201 25.1969 15.2378C25.225 14.544 25.239 13.703 25.239 12.7149C25.239 12.3855 25.2355 11.8248 25.2285 11.0329C25.2214 10.2409 25.2179 9.54712 25.2179 8.95142C24.8185 8.70613 24.1457 8.56246 23.1996 8.52041C23.1715 8.40828 23.1575 8.32068 23.1575 8.2576C23.1575 8.21555 23.1715 8.13846 23.1996 8.02633ZM41.1442 13.9448C41.3124 13.9799 41.4491 14.0569 41.5542 14.1761C41.2038 15.1152 40.6607 15.8195 39.9248 16.2891C39.1889 16.7516 38.39 16.9829 37.528 16.9829C37.1005 16.9829 36.6835 16.9268 36.277 16.8147C35.8705 16.7096 35.4746 16.5344 35.0891 16.2891C34.7106 16.0438 34.3778 15.7424 34.0904 15.385C33.8101 15.0206 33.5823 14.5685 33.4071 14.0289C33.2389 13.4823 33.1548 12.8796 33.1548 12.2208C33.1548 10.7 33.6209 9.47003 34.553 8.53092C35.4851 7.59182 36.6484 7.12226 38.0431 7.12226C39.0242 7.12226 39.8232 7.33601 40.4399 7.76352C41.0636 8.18401 41.3755 8.72365 41.3755 9.38243C41.3755 9.75387 41.2529 10.0622 41.0076 10.3075C40.7623 10.5528 40.4609 10.6755 40.1035 10.6755C39.7251 10.6755 39.4202 10.5668 39.1889 10.3496C38.9577 10.1253 38.842 9.866 38.842 9.57165C38.842 9.03902 39.1118 8.70263 39.6515 8.56246C39.6024 8.40127 39.4447 8.23658 39.1784 8.06838C38.9121 7.89317 38.5337 7.80557 38.0431 7.80557C37.7908 7.80557 37.5525 7.8371 37.3282 7.90018C37.104 7.95625 36.8622 8.07889 36.6029 8.26811C36.3506 8.45734 36.1333 8.70613 35.9511 9.01449C35.7759 9.32286 35.6287 9.75387 35.5096 10.3075C35.3905 10.8542 35.3309 11.4919 35.3309 12.2208C35.3309 12.7114 35.3799 13.1564 35.4781 13.5559C35.5832 13.9553 35.7444 14.3163 35.9616 14.6386C36.1789 14.961 36.4767 15.2133 36.8552 15.3955C37.2336 15.5777 37.6787 15.6688 38.1903 15.6688C38.5126 15.6688 38.8175 15.6268 39.1048 15.5427C39.3922 15.4516 39.6234 15.357 39.7987 15.2589C39.9809 15.1607 40.1736 15.0136 40.3768 14.8173C40.5871 14.6141 40.7272 14.4704 40.7973 14.3863C40.8674 14.2952 40.9831 14.1481 41.1442 13.9448ZM42.8998 1.5612C44.2314 1.43505 45.4123 1.14771 46.4425 0.69918C46.6317 0.776271 46.7544 0.870882 46.8104 0.983015C46.8104 8.92339 46.8385 13.675 46.8945 15.2378C46.9015 15.385 46.9436 15.5182 47.0207 15.6373C47.1048 15.7494 47.1959 15.8406 47.294 15.9106C47.3921 15.9737 47.5253 16.0333 47.6935 16.0893C47.8617 16.1384 47.9913 16.1734 48.0824 16.1945C48.1805 16.2085 48.3102 16.226 48.4714 16.247C48.5134 16.3311 48.5345 16.4187 48.5345 16.5098C48.5345 16.6009 48.5134 16.678 48.4714 16.7411C47.5463 16.6991 46.6492 16.678 45.7802 16.678C44.9252 16.678 44.0352 16.6991 43.1101 16.7411C43.082 16.629 43.068 16.5519 43.068 16.5098C43.068 16.4748 43.082 16.3872 43.1101 16.247C43.3413 16.219 43.5271 16.191 43.6672 16.1629C43.8144 16.1279 43.9966 16.0753 44.2139 16.0052C44.4381 15.9352 44.6063 15.837 44.7185 15.7109C44.8306 15.5777 44.8902 15.4201 44.8972 15.2378C44.9252 14.544 44.9392 12.9917 44.9392 10.5808C44.9392 9.46653 44.9357 7.94924 44.9287 6.02897C44.9217 4.1087 44.9182 2.92781 44.9182 2.48629C44.5187 2.25502 43.8459 2.11135 42.8998 2.05528C42.8648 1.96417 42.8473 1.88007 42.8473 1.80298C42.8473 1.7329 42.8648 1.6523 42.8998 1.5612ZM58.2269 11.1065H52.4976C52.4696 11.527 52.4556 11.8984 52.4556 12.2208C52.4766 13.265 52.7815 14.1025 53.3702 14.7332C53.9589 15.357 54.7473 15.6688 55.7355 15.6688C56.0018 15.6688 56.2506 15.6408 56.4818 15.5847C56.7131 15.5217 56.9023 15.4516 57.0495 15.3745C57.2037 15.2974 57.3614 15.1853 57.5226 15.0381C57.6838 14.8909 57.7994 14.7753 57.8695 14.6912C57.9466 14.6001 58.0482 14.4669 58.1743 14.2917C58.3005 14.1095 58.3846 13.9939 58.4266 13.9448C58.5948 13.9799 58.7315 14.0569 58.8366 14.1761C58.4862 15.1152 57.9431 15.8195 57.2072 16.2891C56.4713 16.7516 55.6724 16.9829 54.8104 16.9829C54.3829 16.9829 53.9659 16.9268 53.5594 16.8147C53.1599 16.7096 52.771 16.5344 52.3925 16.2891C52.0141 16.0438 51.6847 15.7424 51.4044 15.385C51.124 15.0206 50.8998 14.5685 50.7316 14.0289C50.5634 13.4823 50.4793 12.8796 50.4793 12.2208C50.4793 10.742 50.9313 9.52259 51.8354 8.56246C52.7394 7.60233 53.8502 7.12226 55.1678 7.12226C55.7495 7.12226 56.2541 7.20636 56.6816 7.37456C57.1161 7.53575 57.4525 7.75651 57.6908 8.03684C57.9361 8.31717 58.1148 8.62554 58.2269 8.96193C58.346 9.29132 58.4056 9.64524 58.4056 10.0237C58.4056 10.3741 58.346 10.735 58.2269 11.1065ZM54.9155 7.80557C54.4319 7.80557 53.9729 8.01932 53.5384 8.44682C53.1109 8.87433 52.8025 9.52259 52.6133 10.3916H56.3977C56.4678 10.1253 56.5029 9.89403 56.5029 9.6978C56.5029 9.15116 56.3767 8.69912 56.1244 8.3417C55.8721 7.98428 55.4691 7.80557 54.9155 7.80557Z" fill="#20201B"/>
</svg>
