<svg width="1720" height="272" viewBox="0 0 1720 272" fill="none" xmlns="http://www.w3.org/2000/svg">
<path d="M538.77 271V46H577.77V187.6C577.77 191.5 581.67 193.6 585.27 193.6C589.17 193.6 592.77 191.5 592.77 187.6V156.7L627.27 121H681.27L635.07 169L691.47 271H646.77L604.47 194.8L577.77 220.9V271H538.77Z" fill="white"/>
<path d="M456.509 121H476.309C507.809 121 528.809 142 528.809 173.5V271H489.809V185.5C489.809 170.2 479.609 160 464.309 160H443.309C428.009 160 417.809 170.2 417.809 185.5V271H378.809V121H417.809V142.6C417.809 148 421.709 151 425.309 151C429.209 151 432.809 148 432.809 142.6C432.809 127 443.309 121 456.509 121Z" fill="white"/>
<path d="M326.523 74.8V55.6C326.523 49.9 330.423 46 336.123 46H355.923C361.623 46 365.523 49.9 365.523 55.6V74.8C365.523 80.5 361.623 84.4 355.923 84.4H336.123C330.423 84.4 326.523 80.5 326.523 74.8ZM326.523 271V121H365.523V271H326.523Z" fill="white"/>
<path d="M237.661 121H257.461C288.961 121 309.961 142 309.961 173.5V271H270.961V185.5C270.961 170.2 260.761 160 245.461 160H224.461C209.161 160 198.961 170.2 198.961 185.5V271H159.961V46H198.961V142.9C198.961 148.3 202.861 151.3 206.461 151.3C210.361 151.3 213.961 148.3 213.961 142.9C213.961 127.6 224.461 121 237.661 121Z" fill="white"/>
<path d="M55.5 271V100H0V61H150V100H94.5V271H55.5Z" fill="white"/>
<path d="M1567.3 271V46H1606.3V187.6C1606.3 191.5 1610.2 193.6 1613.8 193.6C1617.7 193.6 1621.3 191.5 1621.3 187.6V156.7L1655.8 121H1709.8L1663.6 169L1720 271H1675.3L1633 194.8L1606.3 220.9V271H1567.3Z" fill="white"/>
<path d="M1485.04 121H1504.84C1536.34 121 1557.34 142 1557.34 173.5V271H1518.34V185.5C1518.34 170.2 1508.14 160 1492.84 160H1471.84C1456.54 160 1446.34 170.2 1446.34 185.5V271H1407.34V121H1446.34V142.6C1446.34 148 1450.24 151 1453.84 151C1457.74 151 1461.34 148 1461.34 142.6C1461.34 127 1471.84 121 1485.04 121Z" fill="white"/>
<path d="M1397.38 271H1358.38V249.1C1358.38 243.4 1354.78 240.7 1350.88 240.7C1347.28 240.7 1343.38 243.4 1343.38 249.1C1343.38 264.4 1332.88 271 1319.68 271H1299.88C1268.38 271 1247.38 250 1247.38 218.5V173.5C1247.38 142 1268.38 121 1299.88 121H1319.68C1332.88 121 1343.38 128.2 1343.38 143.2C1343.38 148.6 1347.28 151.6 1350.88 151.6C1354.78 151.6 1358.38 148.6 1358.38 143.2V121H1397.38V271ZM1311.88 232H1332.88C1348.18 232 1358.38 221.8 1358.38 206.5V185.8C1358.38 170.5 1348.18 160 1332.88 160H1311.88C1296.58 160 1286.38 170.2 1286.38 185.5V206.5C1286.38 221.8 1296.58 232 1311.88 232Z" fill="white"/>
<path d="M1154.05 271V100H1098.55V61H1248.55V100H1193.05V271H1154.05Z" fill="white"/>
<path d="M1061.5 271.25C1061.5 249.418 1057.2 227.799 1048.84 207.629C1040.49 187.458 1028.24 169.131 1012.81 153.693C997.369 138.256 979.041 126.01 958.871 117.655C938.701 109.3 917.082 105 895.25 105C873.418 105 851.799 109.3 831.629 117.655C811.458 126.01 793.131 138.256 777.693 153.694C762.256 169.131 750.01 187.459 741.655 207.629C733.3 227.799 729 249.418 729 271.25L895.25 271.25H1061.5Z" fill="white"/>
<mask id="mask0_228_1692" style="mask-type:alpha" maskUnits="userSpaceOnUse" x="729" y="105" width="333" height="167">
<path d="M1061.5 271.25C1061.5 227.158 1043.98 184.871 1012.81 153.694C981.629 122.516 939.342 105 895.25 105C851.158 105 808.871 122.516 777.694 153.693C746.516 184.871 729 227.158 729 271.25L895.25 271.25H1061.5Z" fill="#557AFF"/>
</mask>
<g mask="url(#mask0_228_1692)">
<g filter="url(#filter0_f_228_1692)">
<ellipse cx="932" cy="189.5" rx="111" ry="84.5" fill="#4AE5E8"/>
</g>
<g filter="url(#filter1_f_228_1692)">
<ellipse cx="755" cy="247.5" rx="71" ry="62.5" fill="#FF0000"/>
</g>
<g filter="url(#filter2_f_228_1692)">
<ellipse cx="842" cy="163" rx="88" ry="78" fill="#FFF500"/>
</g>
<g filter="url(#filter3_f_228_1692)">
<ellipse cx="1024" cy="259" rx="92" ry="71" fill="#FD2FE8"/>
</g>
</g>
<g clip-path="url(#clip0_228_1692)">
<path fill-rule="evenodd" clip-rule="evenodd" d="M815.96 171.412C815.76 170.282 815.571 169.154 815.393 168.029C811.282 142.157 819.725 104.368 846.214 97.5417C850.096 96.5494 854.081 96.0122 858.087 95.9409C872.784 95.6378 887.113 101.249 899.088 108.248C896.946 109.908 895.004 111.81 893.3 113.918C890.478 117.408 888.12 121.416 884.875 124.541C883.626 125.772 882.227 126.841 880.712 127.723C879.729 128.282 878.687 128.732 877.606 129.065C876.789 128.042 875.774 127.196 874.621 126.577C873.468 125.957 872.201 125.578 870.898 125.462C870.67 125.437 870.436 125.42 870.198 125.409C867.428 125.287 864.671 126.546 862.246 128.415C859.025 130.899 856.392 134.462 855.108 137.306C851.062 146.248 850.467 156.086 854.116 165.501C854.732 167.068 855.573 168.537 856.611 169.863C859.59 173.704 864.139 176.502 868.682 176.299C869.039 176.282 869.395 176.248 869.748 176.194L869.881 176.173C874.762 175.357 877.803 171.026 879.613 166.96C888.038 163.015 894.683 155.964 898.997 147.09C907.221 147.09 912.915 140.704 913.746 134.076C914.021 131.885 912.935 129.787 912.198 129.097C912.516 128.879 912.802 128.661 913.035 128.487C915.216 126.823 917.343 124.201 917.694 121.418C921.218 124.369 924.112 127.089 926.228 129.224C945.555 148.778 964.407 169.268 977.139 200.437C973.279 197.443 966.871 196.228 960.385 197.602C940.947 201.746 914.658 223.084 911.116 246.915C910.946 248.005 911.098 249.12 911.552 250.125C903.849 234.887 892.727 221.365 880.365 209.656C873.079 228.421 860.719 244.85 838.62 239.881C834.529 238.936 830.634 237.286 827.109 235.005C822.13 231.81 817.779 228.168 814.087 223.507C807.156 214.753 802.061 205.257 796.812 195.506C796.45 194.832 796.086 194.154 795.722 193.478C795.559 190.113 796.283 186.764 797.82 183.766C801.241 177.069 808.414 172.62 816.418 173.878C816.263 173.058 816.112 172.239 815.967 171.42L815.96 171.412Z" fill="white"/>
<mask id="mask1_228_1692" style="mask-type:luminance" maskUnits="userSpaceOnUse" x="795" y="95" width="183" height="156">
<path d="M815.96 171.412C815.76 170.282 815.571 169.154 815.393 168.029C811.282 142.157 819.725 104.368 846.214 97.5417C850.096 96.5494 854.081 96.0122 858.087 95.9409C872.784 95.6378 887.113 101.249 899.088 108.248C896.946 109.908 895.004 111.81 893.3 113.918C890.478 117.408 888.12 121.416 884.875 124.541C883.626 125.772 882.227 126.841 880.712 127.723C879.729 128.282 878.687 128.732 877.606 129.065C876.789 128.042 875.774 127.196 874.621 126.577C873.468 125.957 872.201 125.578 870.898 125.462C870.67 125.437 870.436 125.42 870.198 125.409C867.428 125.287 864.671 126.546 862.246 128.415C859.025 130.899 856.392 134.462 855.108 137.306C851.062 146.248 850.467 156.086 854.116 165.501C854.732 167.068 855.573 168.537 856.611 169.863C859.59 173.704 864.139 176.502 868.682 176.299C869.039 176.282 869.395 176.248 869.748 176.194L869.881 176.173C874.762 175.357 877.803 171.026 879.613 166.96C888.038 163.015 894.683 155.964 898.997 147.09C907.221 147.09 912.915 140.704 913.746 134.076C914.021 131.885 912.935 129.787 912.198 129.097C912.516 128.879 912.802 128.661 913.035 128.487C915.216 126.823 917.343 124.201 917.694 121.418C921.218 124.369 924.112 127.089 926.228 129.224C945.555 148.778 964.407 169.268 977.139 200.437C973.279 197.443 966.871 196.228 960.385 197.602C940.947 201.746 914.658 223.084 911.116 246.915C910.946 248.005 911.098 249.12 911.552 250.125C903.849 234.887 892.727 221.365 880.365 209.656C873.079 228.421 860.719 244.85 838.62 239.881C834.529 238.936 830.634 237.286 827.109 235.005C822.13 231.81 817.779 228.168 814.087 223.507C807.156 214.753 802.061 205.257 796.812 195.506C796.45 194.832 796.086 194.154 795.722 193.478C795.559 190.113 796.283 186.764 797.82 183.766C801.241 177.069 808.414 172.62 816.418 173.878C816.263 173.058 816.112 172.239 815.967 171.42L815.96 171.412Z" fill="white"/>
</mask>
<g mask="url(#mask1_228_1692)">
<path fill-rule="evenodd" clip-rule="evenodd" d="M810.051 174.06C812.143 173.596 814.305 173.532 816.421 173.87C817.294 178.463 818.354 183.073 819.597 187.638C819.597 187.638 814.581 180.264 810.051 174.06Z" fill="#030303"/>
<path fill-rule="evenodd" clip-rule="evenodd" d="M885.705 214.908C883.96 213.12 882.184 211.371 880.375 209.661C883.524 201.57 885.734 193.044 887.38 185.616C887.336 195.403 886.777 205.18 885.705 214.908Z" fill="#030303"/>
<path fill-rule="evenodd" clip-rule="evenodd" d="M978.542 188.78C978.871 189.106 979.056 189.549 979.058 190.012C979.06 190.475 978.878 190.919 978.552 191.248C978.226 191.576 977.783 191.762 977.32 191.764C976.857 191.766 976.413 191.584 976.084 191.258C973.502 188.697 968.826 187.55 963.496 187.432C955.062 187.234 944.982 189.716 938.136 194.333C919.116 207.167 906.796 225.14 900.79 247.078C900.664 247.521 900.369 247.896 899.968 248.121C899.568 248.347 899.094 248.406 898.651 248.284C898.207 248.162 897.829 247.871 897.6 247.472C897.37 247.073 897.308 246.6 897.425 246.156C903.658 223.404 916.451 204.755 936.184 191.447C943.582 186.449 954.463 183.729 963.588 183.943C969.956 184.093 975.463 185.72 978.551 188.78H978.542Z" fill="#030303"/>
<path fill-rule="evenodd" clip-rule="evenodd" d="M815.09 176.853C815.553 176.863 815.993 177.056 816.313 177.39C816.634 177.724 816.808 178.171 816.799 178.634C816.789 179.097 816.596 179.537 816.262 179.857C815.928 180.178 815.481 180.352 815.018 180.343C807.282 180.183 800.77 187.692 800.517 202.976C800.509 203.439 800.318 203.88 799.985 204.201C799.652 204.523 799.206 204.699 798.743 204.691C798.28 204.684 797.839 204.492 797.518 204.16C797.196 203.827 797.02 203.38 797.028 202.917C797.326 184.888 805.969 176.668 815.09 176.853Z" fill="#030303"/>
<path fill-rule="evenodd" clip-rule="evenodd" d="M827.718 209.745C827.753 209.825 827.755 209.915 827.724 209.996C827.693 210.078 827.631 210.143 827.551 210.178C827.472 210.214 827.381 210.216 827.3 210.185C827.219 210.153 827.153 210.091 827.118 210.011C822.076 198.671 818.445 186.239 816.096 173.93C816.079 173.845 816.097 173.757 816.146 173.685C816.195 173.613 816.27 173.563 816.355 173.546C816.441 173.53 816.529 173.548 816.601 173.597C816.673 173.645 816.723 173.721 816.739 173.806C819.075 186.065 822.702 198.444 827.718 209.745Z" fill="#030303"/>
<path fill-rule="evenodd" clip-rule="evenodd" d="M880.68 209.785C880.664 209.825 880.641 209.861 880.611 209.892C880.581 209.924 880.546 209.948 880.506 209.966C880.467 209.983 880.425 209.992 880.382 209.993C880.339 209.994 880.296 209.987 880.256 209.971C880.216 209.956 880.179 209.932 880.148 209.902C880.117 209.873 880.092 209.837 880.075 209.798C880.057 209.758 880.048 209.716 880.047 209.673C880.046 209.63 880.054 209.587 880.069 209.547C883.611 200.446 885.958 190.791 887.661 182.783C888.673 178.004 889.168 173.123 889.999 168.312C890.006 168.269 890.022 168.228 890.045 168.191C890.068 168.155 890.099 168.123 890.134 168.097C890.17 168.072 890.21 168.054 890.252 168.044C890.295 168.035 890.339 168.034 890.382 168.041C890.425 168.048 890.466 168.064 890.503 168.087C890.54 168.11 890.571 168.14 890.597 168.176C890.622 168.212 890.64 168.252 890.65 168.294C890.659 168.337 890.66 168.381 890.653 168.424C889.82 173.243 889.323 178.131 888.309 182.92C886.601 190.957 884.235 200.642 880.68 209.785Z" fill="#030303"/>
</g>
<path fill-rule="evenodd" clip-rule="evenodd" d="M815.96 171.412C815.76 170.282 815.571 169.154 815.393 168.029C811.282 142.157 819.725 104.368 846.214 97.5417C850.096 96.5494 854.081 96.0122 858.087 95.9409C872.784 95.6378 887.113 101.249 899.088 108.248C896.946 109.908 895.004 111.81 893.3 113.918C890.478 117.408 888.12 121.416 884.875 124.541C883.626 125.772 882.227 126.841 880.712 127.723C879.729 128.282 878.687 128.732 877.606 129.065C876.789 128.042 875.774 127.196 874.621 126.577C873.468 125.957 872.201 125.578 870.898 125.462C870.67 125.437 870.436 125.42 870.198 125.409C867.428 125.287 864.671 126.546 862.246 128.415C859.025 130.899 856.392 134.462 855.108 137.306C851.062 146.248 850.467 156.086 854.116 165.501C854.732 167.068 855.573 168.537 856.611 169.863C859.59 173.704 864.139 176.502 868.682 176.299C869.039 176.282 869.395 176.248 869.748 176.194L869.881 176.173C874.762 175.357 877.803 171.026 879.613 166.96C888.038 163.015 894.683 155.964 898.997 147.09C907.221 147.09 912.915 140.704 913.746 134.076C914.021 131.885 912.935 129.787 912.198 129.097C912.516 128.879 912.802 128.661 913.035 128.487C915.216 126.823 917.343 124.201 917.694 121.418C921.218 124.369 924.112 127.089 926.228 129.224C945.555 148.778 964.407 169.268 977.139 200.437C973.279 197.443 966.871 196.228 960.385 197.602C940.947 201.746 914.658 223.084 911.116 246.915C910.946 248.005 911.098 249.12 911.552 250.125C903.849 234.887 892.727 221.365 880.365 209.656C873.079 228.421 860.719 244.85 838.62 239.881C834.529 238.936 830.634 237.286 827.109 235.005C822.13 231.81 817.779 228.168 814.087 223.507C807.156 214.753 802.061 205.257 796.812 195.506C796.45 194.832 796.086 194.154 795.722 193.478C795.559 190.113 796.283 186.764 797.82 183.766C801.241 177.069 808.414 172.62 816.418 173.878C816.263 173.058 816.112 172.239 815.967 171.42L815.96 171.412Z" stroke="#030303" stroke-width="0.436184" stroke-miterlimit="10"/>
<path fill-rule="evenodd" clip-rule="evenodd" d="M794.589 173.799L796.793 180.608C797.127 181.642 797.463 182.684 797.814 183.757C796.277 186.755 795.554 190.104 795.716 193.469C796.082 194.145 796.447 194.823 796.807 195.497C795.606 195.506 794.416 195.278 793.304 194.826C792.192 194.374 791.18 193.707 790.327 192.863C788.582 185.175 790.512 178.872 794.586 173.799H794.589Z" fill="#030303"/>
<path fill-rule="evenodd" clip-rule="evenodd" d="M793.516 171.462C793.501 171.42 793.494 171.376 793.496 171.333C793.499 171.289 793.51 171.246 793.529 171.206C793.548 171.166 793.575 171.131 793.608 171.102C793.641 171.073 793.68 171.051 793.722 171.038C793.764 171.024 793.808 171.019 793.852 171.023C793.895 171.027 793.938 171.039 793.977 171.06C794.016 171.08 794.05 171.109 794.078 171.143C794.105 171.177 794.126 171.217 794.138 171.259C795.261 174.676 797.008 180.236 798.122 183.657C798.146 183.739 798.136 183.826 798.097 183.901C798.057 183.975 797.99 184.032 797.909 184.058C797.829 184.084 797.741 184.078 797.665 184.042C797.589 184.005 797.53 183.94 797.501 183.86C796.386 180.441 794.639 174.881 793.516 171.462Z" fill="#030303"/>
<path fill-rule="evenodd" clip-rule="evenodd" d="M807.867 156.943C807.845 156.905 807.831 156.862 807.826 156.818C807.821 156.774 807.825 156.73 807.838 156.687C807.851 156.645 807.872 156.605 807.9 156.571C807.928 156.537 807.963 156.509 808.003 156.489C808.042 156.469 808.086 156.457 808.13 156.454C808.174 156.451 808.218 156.457 808.26 156.472C808.302 156.487 808.34 156.51 808.373 156.54C808.405 156.57 808.432 156.606 808.45 156.647C810.977 161.593 813.372 166.461 816.231 171.244C816.275 171.318 816.288 171.407 816.267 171.492C816.246 171.576 816.192 171.648 816.118 171.693C816.081 171.715 816.04 171.729 815.998 171.736C815.956 171.742 815.912 171.74 815.871 171.729C815.829 171.719 815.79 171.7 815.756 171.674C815.721 171.649 815.693 171.616 815.671 171.579C812.803 166.795 810.402 161.905 807.867 156.943Z" fill="#030303"/>
<path fill-rule="evenodd" clip-rule="evenodd" d="M796.812 195.173C796.898 195.173 796.982 195.207 797.043 195.268C797.104 195.33 797.139 195.413 797.139 195.5C797.139 195.586 797.104 195.67 797.043 195.731C796.982 195.792 796.898 195.827 796.812 195.827C790.269 195.764 786.472 190.076 785.988 182.661C785.624 177.093 785.406 161.087 793.996 151.192C800.149 144.098 809.522 147.744 811.502 154.126C811.528 154.209 811.52 154.298 811.479 154.375C811.439 154.452 811.369 154.51 811.286 154.536C811.203 154.561 811.114 154.553 811.037 154.512C810.96 154.472 810.902 154.403 810.876 154.32C809.025 148.348 800.247 144.983 794.491 151.62C786.04 161.364 786.276 177.136 786.64 182.615C787.098 189.646 790.618 195.112 796.818 195.17L796.812 195.173Z" fill="#030303"/>
<path fill-rule="evenodd" clip-rule="evenodd" d="M796.881 195.153C796.968 195.138 797.057 195.157 797.129 195.208C797.201 195.258 797.25 195.336 797.266 195.422C797.281 195.509 797.261 195.598 797.211 195.671C797.16 195.743 797.083 195.792 796.996 195.807C789.549 197.135 784.751 190.466 783.486 183.926C782.674 179.747 783.025 175.579 783.486 171.385C783.996 166.616 785.141 161.024 787.18 156.409C788.545 153.299 790.329 150.627 792.587 148.937C794.006 147.868 795.653 146.861 797.361 146.351C798.775 145.93 800.247 145.734 801.722 145.77C806.333 145.871 809.212 148.479 810.747 151.962C812.263 155.393 812.461 159.68 811.728 163.205C811.72 163.247 811.703 163.287 811.679 163.322C811.654 163.358 811.623 163.388 811.588 163.412C811.552 163.435 811.511 163.452 811.469 163.46C811.427 163.468 811.383 163.467 811.341 163.459C811.299 163.45 811.259 163.433 811.224 163.409C811.188 163.385 811.158 163.354 811.134 163.318C811.111 163.282 811.094 163.242 811.086 163.199C811.078 163.157 811.079 163.114 811.087 163.072C811.794 159.672 811.611 155.534 810.149 152.226C808.712 148.968 806.023 146.518 801.707 146.425C800.306 146.391 798.907 146.578 797.563 146.976C795.928 147.467 794.355 148.438 792.983 149.458C790.803 151.096 789.099 153.678 787.773 156.679C785.76 161.233 784.633 166.751 784.129 171.459C783.693 175.588 783.333 179.692 784.129 183.803C785.337 190.012 789.799 196.424 796.881 195.157V195.153Z" fill="#030303"/>
<path fill-rule="evenodd" clip-rule="evenodd" d="M793.824 171.362C794.947 174.779 796.694 180.338 797.811 183.758Z" fill="#030303"/>
<path fill-rule="evenodd" clip-rule="evenodd" d="M845.369 86.9031C840.491 82.6569 839.884 74.0466 843.188 67.2138C844.113 65.3077 845.642 63.1878 847.55 61.8117C848.859 60.8739 850.344 60.285 851.943 60.3047C853.541 60.3243 855.077 60.9589 856.459 61.7332C857.52 62.3498 858.468 63.1426 859.262 64.0777C862.3 67.5388 866.81 75.5449 862.989 83.2261C861.593 86.0308 859.12 87.6076 857.282 88.3862C854.095 89.7383 848.811 89.9128 845.354 86.9031H845.369ZM845.806 86.4103C849.064 89.2454 854.045 89.0579 857.048 87.7842C858.778 87.0514 861.111 85.575 862.424 82.9339C866.103 75.5406 861.717 67.8419 858.791 64.5095C858.045 63.6296 857.155 62.8832 856.158 62.3024C854.872 61.574 853.456 60.9829 851.954 60.959C850.497 60.935 849.145 61.4867 847.954 62.3438C846.124 63.6524 844.671 65.6806 843.79 67.4995C840.613 74.0575 841.123 82.3298 845.806 86.4103Z" fill="white"/>
<path fill-rule="evenodd" clip-rule="evenodd" d="M851.488 56.9022C851.528 56.9165 851.566 56.9387 851.598 56.9675C851.63 56.9963 851.656 57.0311 851.675 57.07C851.693 57.1089 851.704 57.1511 851.706 57.1941C851.709 57.2372 851.703 57.2803 851.688 57.321C851.674 57.3616 851.652 57.3991 851.623 57.4312C851.594 57.4633 851.559 57.4894 851.521 57.508C851.482 57.5266 851.439 57.5374 851.396 57.5398C851.353 57.5421 851.31 57.5359 851.27 57.5216C848.229 56.49 844.991 55.5849 841.811 56.4311C841.727 56.4537 841.638 56.442 841.562 56.3987C841.487 56.3553 841.432 56.2838 841.41 56.2C841.387 56.1161 841.399 56.0267 841.442 55.9514C841.486 55.8762 841.557 55.8212 841.641 55.7987C844.947 54.9154 848.319 55.8248 851.479 56.8891L851.488 56.9022Z" fill="white"/>
<path fill-rule="evenodd" clip-rule="evenodd" d="M847.007 59.4238C847.093 59.429 847.175 59.4685 847.232 59.5335C847.29 59.5985 847.319 59.6838 847.314 59.7706C847.309 59.8573 847.27 59.9385 847.205 59.9962C847.139 60.0538 847.054 60.0833 846.967 60.0781C844.071 59.9014 841.275 60.6037 838.974 62.4139C838.906 62.4643 838.82 62.4862 838.736 62.4747C838.652 62.4632 838.575 62.4193 838.523 62.3523C838.47 62.2854 838.446 62.2006 838.455 62.116C838.464 62.0314 838.506 61.9536 838.571 61.8992C840.998 59.9887 843.949 59.2384 847.007 59.4238Z" fill="white"/>
<path fill-rule="evenodd" clip-rule="evenodd" d="M844.779 64.8628C844.819 64.8456 844.861 64.8363 844.904 64.8355C844.947 64.8347 844.99 64.8424 845.03 64.8581C845.07 64.8738 845.106 64.8972 845.137 64.927C845.168 64.9568 845.193 64.9924 845.21 65.0318C845.227 65.0712 845.237 65.1135 845.237 65.1565C845.238 65.1995 845.231 65.2421 845.215 65.2821C845.199 65.3221 845.176 65.3587 845.146 65.3896C845.116 65.4205 845.081 65.4453 845.041 65.4625C843.108 66.3089 841.464 67.7023 840.313 69.471C840.265 69.5416 840.192 69.5908 840.108 69.6081C840.025 69.6254 839.938 69.6095 839.866 69.5638C839.794 69.518 839.743 69.4461 839.724 69.3632C839.704 69.2803 839.717 69.193 839.761 69.1199C840.982 67.2422 842.726 65.7625 844.777 64.8628H844.779Z" fill="white"/>
<path fill-rule="evenodd" clip-rule="evenodd" d="M850.573 70.0731C850.564 70.031 850.564 69.9876 850.572 69.9454C850.58 69.9032 850.597 69.8629 850.62 69.827C850.644 69.791 850.674 69.7601 850.71 69.7359C850.745 69.7117 850.785 69.6948 850.827 69.686C850.869 69.6773 850.913 69.6769 850.955 69.685C850.997 69.693 851.038 69.7093 851.073 69.7329C851.109 69.7565 851.14 69.7869 851.165 69.8225C851.189 69.858 851.206 69.898 851.214 69.9401C851.491 71.2661 851.747 72.6248 852.143 73.9225C852.156 73.9636 852.16 74.0067 852.156 74.0495C852.152 74.0923 852.14 74.1339 852.12 74.1719C852.1 74.2098 852.072 74.2435 852.039 74.2708C852.006 74.2982 851.968 74.3188 851.926 74.3314C851.885 74.344 851.842 74.3484 851.799 74.3443C851.757 74.3402 851.715 74.3277 851.677 74.3076C851.639 74.2874 851.605 74.26 851.578 74.2268C851.551 74.1937 851.53 74.1555 851.518 74.1144C851.116 72.8058 850.863 71.4188 850.573 70.0731Z" fill="white"/>
<path fill-rule="evenodd" clip-rule="evenodd" d="M855.301 68.4899C855.287 68.4068 855.306 68.3216 855.353 68.2519C855.401 68.1822 855.473 68.1334 855.555 68.1157C855.638 68.098 855.724 68.1127 855.795 68.1568C855.867 68.2009 855.919 68.271 855.94 68.3525C856.204 69.589 856.555 70.7973 856.861 72.0229C856.882 72.1071 856.869 72.1962 856.824 72.2706C856.78 72.3451 856.707 72.3988 856.623 72.4199C856.539 72.441 856.45 72.4278 856.375 72.3832C856.301 72.3386 856.247 72.2663 856.226 72.1821C855.919 70.9499 855.572 69.733 855.301 68.4899Z" fill="white"/>
<path fill-rule="evenodd" clip-rule="evenodd" d="M850.482 83.5092C850.46 83.5464 850.432 83.579 850.398 83.6052C850.364 83.6314 850.325 83.6506 850.283 83.6617C850.242 83.6729 850.198 83.6757 850.156 83.6701C850.113 83.6645 850.072 83.6506 850.035 83.6291C849.998 83.6076 849.965 83.579 849.939 83.5449C849.913 83.5108 849.893 83.4719 849.882 83.4304C849.871 83.3889 849.868 83.3456 849.874 83.303C849.879 83.2604 849.893 83.2193 849.915 83.182C851.612 80.2574 854.687 78.4909 857.88 77.636C857.963 77.6137 858.053 77.6257 858.128 77.6692C858.203 77.7128 858.258 77.7844 858.28 77.8682C858.302 77.9521 858.29 78.0414 858.247 78.1164C858.203 78.1915 858.131 78.2462 858.048 78.2684C855.02 79.0775 852.089 80.7372 850.482 83.5026V83.5092Z" fill="white"/>
<path d="M904.163 87.0424C904.573 84.4645 904.981 81.6948 905.286 79.2151C906.44 69.8371 906.771 61.8659 900.987 53.8292C896.146 47.0989 886.354 45.2211 878.849 47.8709L878.792 47.8927C878.017 48.164 877.258 48.4778 876.518 48.8327C874.236 49.9428 872.156 51.5022 870.865 53.7136C868.492 57.7483 869.96 63.1919 873.619 65.9071C873.811 66.0489 874.01 66.1863 874.212 66.3171C874.182 66.3782 874.153 66.4436 874.127 66.5069C873.663 67.5842 873.449 68.932 873.833 70.0661C874.217 71.2002 875.043 72.0289 876.079 72.596C876.543 72.8464 877.032 73.046 877.538 73.1914C877.341 75.2665 876.965 77.3206 876.413 79.3307L876.341 79.564C875.394 79.9413 874.559 80.4953 874.11 81.215C873.674 81.8932 873.602 82.7198 874.088 83.6751C874.145 83.7863 874.204 83.8931 874.265 84.0044C874.236 84.0458 874.21 84.0872 874.182 84.1265C874.131 84.1968 874.111 84.2843 874.125 84.3697C874.139 84.4552 874.186 84.5316 874.256 84.5823C874.311 84.6238 874.379 84.646 874.448 84.6456C874.5 84.6451 874.551 84.6325 874.597 84.6086C874.644 84.5847 874.684 84.5503 874.714 84.5082C875.693 83.1494 876.459 81.5159 877.041 79.5139C877.597 77.4974 877.977 75.4368 878.179 73.3549C879.004 73.5313 879.849 73.5894 880.69 73.5272C880.663 74.2156 880.797 74.9006 881.081 75.5282C881.365 76.1558 881.791 76.7088 882.325 77.1432C884.175 78.6328 886.22 78.4387 887.996 77.5314C888.054 77.4832 888.094 77.4161 888.109 77.3417C888.123 77.2672 888.112 77.19 888.076 77.1233C888.04 77.0566 887.981 77.0044 887.911 76.9758C887.841 76.9472 887.763 76.944 887.69 76.9665C886.14 77.7604 884.349 77.9545 882.733 76.6503C882.261 76.2673 881.889 75.776 881.647 75.2183C881.406 74.6605 881.303 74.0528 881.346 73.4465C882.376 73.1936 883.863 72.343 884.528 71.5252C884.925 71.041 885.032 70.5503 884.809 70.1621C884.541 69.6997 884.066 69.5558 883.501 69.6801C882.847 69.8284 882.042 70.3954 881.527 71.0955C881.137 71.6241 880.872 72.234 880.751 72.8795C879.822 72.9669 878.885 72.8931 877.981 72.6614C877.426 72.5218 876.89 72.3137 876.387 72.042C875.495 71.5513 874.768 70.8404 874.444 69.8742C874.119 68.9081 874.315 67.7195 874.718 66.7838C874.736 66.7446 874.753 66.7075 874.768 66.6683C876.256 67.4774 877.931 67.8372 879.625 67.2985C880.221 67.1179 880.772 66.8125 881.241 66.4026C881.71 65.9927 882.086 65.4878 882.345 64.9213C882.7 64.0708 882.602 63.3053 882.208 62.771C881.813 62.2366 881.117 61.916 880.201 61.9989C879.694 62.0493 879.195 62.1621 878.716 62.3348C877.847 62.643 877.036 63.0958 876.317 63.6739C875.595 64.2523 874.983 64.9564 874.511 65.7523C874.338 65.6389 874.168 65.5211 874.001 65.399C870.599 62.8735 869.203 57.8159 871.423 54.0582C872.655 51.9601 874.631 50.488 876.797 49.4346C877.515 49.088 878.252 48.7808 879.004 48.5143L879.061 48.4947C886.308 45.9343 895.773 47.7183 900.451 54.2174C906.121 62.108 905.764 69.9396 904.63 79.1409C903.82 85.7273 902.281 94.3485 901.938 95.9929C901.926 96.0361 901.923 96.0813 901.929 96.1257C901.935 96.1702 901.95 96.2129 901.974 96.2513C901.997 96.2896 902.028 96.3228 902.064 96.3487C902.101 96.3746 902.143 96.3927 902.187 96.4018C902.231 96.4109 902.276 96.411 902.32 96.4018C902.364 96.3927 902.405 96.3746 902.442 96.3488C902.479 96.3229 902.51 96.2898 902.533 96.2514C902.556 96.2131 902.571 96.1704 902.577 96.1259L902.59 96.0605C903.999 96.0605 905.166 95.9318 905.984 95.6592C907.046 95.3037 907.674 94.7868 907.971 94.1522C908.915 92.161 906.555 89.123 904.163 87.0424ZM882.066 71.4728C882.485 70.9036 883.119 70.4282 883.658 70.3082C883.904 70.2537 884.129 70.2733 884.247 70.4783C884.27 70.5325 884.279 70.5915 884.274 70.6501C884.269 70.7087 884.249 70.7651 884.216 70.8142C884.088 71.0464 883.919 71.2533 883.717 71.4248C883.059 72.0031 882.294 72.4476 881.466 72.7334C881.585 72.2791 881.788 71.8514 882.066 71.4728ZM876.734 64.1733C877.396 63.6414 878.142 63.2249 878.943 62.9411C879.37 62.7857 879.816 62.6845 880.269 62.6401C880.908 62.5812 881.414 62.7731 881.689 63.1483C881.963 63.5234 881.998 64.0621 881.75 64.6574C881.529 65.1374 881.209 65.5647 880.81 65.9108C880.41 66.2568 879.942 66.5136 879.436 66.6639C877.909 67.1481 876.413 66.8057 875.074 66.0772C875.507 65.3473 876.07 64.7022 876.734 64.1733Z" fill="white"/>
<path d="M895.089 68.1192C894.653 68.586 892.097 73.2662 889.637 75.5758C889.574 75.636 889.537 75.7187 889.535 75.8058C889.533 75.8929 889.566 75.9773 889.626 76.0403C889.686 76.1034 889.769 76.14 889.856 76.142C889.943 76.144 890.027 76.1114 890.091 76.0512C892.564 73.7329 895.139 69.0331 895.576 68.5642C895.634 68.5003 895.665 68.4159 895.662 68.3294C895.658 68.2429 895.621 68.1611 895.558 68.1018C895.527 68.0713 895.489 68.0475 895.448 68.0318C895.407 68.0161 895.364 68.0088 895.32 68.0105C895.276 68.0121 895.233 68.0226 895.193 68.0413C895.154 68.06 895.118 68.0865 895.089 68.1192Z" fill="white"/>
<path fill-rule="evenodd" clip-rule="evenodd" d="M921.75 232.915L930.256 241.002C930.297 243.763 930.275 245.445 930.271 247.109C919.229 255.571 913.244 253.767 911.559 250.125C911.104 249.12 910.952 248.005 911.122 246.915C912.036 240.773 914.459 234.795 917.883 229.236C923.336 220.395 931.329 212.609 939.821 206.891C931.021 214.524 925.458 222.262 921.748 232.911L921.75 232.915ZM977.145 200.433C972.788 201.187 968.557 202.543 964.572 204.461L960.391 197.606C966.878 196.224 973.285 197.438 977.145 200.442V200.433Z" fill="#030303"/>
<path fill-rule="evenodd" clip-rule="evenodd" d="M940.549 250.349C940.583 250.378 940.612 250.413 940.632 250.453C940.653 250.493 940.665 250.537 940.668 250.582C940.671 250.627 940.664 250.672 940.649 250.714C940.633 250.756 940.609 250.795 940.578 250.828C940.548 250.86 940.51 250.886 940.469 250.904C940.427 250.921 940.383 250.93 940.338 250.929C940.293 250.929 940.248 250.919 940.207 250.901C940.166 250.883 940.13 250.856 940.099 250.823L930.028 241.246C929.997 241.217 929.972 241.181 929.954 241.142C929.937 241.102 929.927 241.06 929.926 241.017C929.925 240.974 929.932 240.931 929.948 240.891C929.963 240.851 929.986 240.814 930.016 240.783C930.046 240.752 930.081 240.726 930.12 240.709C930.16 240.691 930.202 240.682 930.245 240.681C930.288 240.68 930.331 240.687 930.371 240.702C930.411 240.718 930.448 240.741 930.479 240.771L940.549 250.349Z" fill="#030303"/>
<path fill-rule="evenodd" clip-rule="evenodd" d="M941.719 261.525C948.916 263.051 953.655 256.917 956.955 250.574C964.13 236.784 968.339 224.273 977.929 211.673C982.611 205.521 993.33 198.426 996.759 201.676C1000.73 205.445 998.641 213.597 991.703 227.138C983.152 243.827 965.6 262.033 950.281 262.469C947.397 262.551 944.515 262.232 941.719 261.523V261.525Z" fill="#030303"/>
<mask id="mask2_228_1692" style="mask-type:luminance" maskUnits="userSpaceOnUse" x="941" y="200" width="58" height="63">
<path d="M941.719 261.525C948.916 263.051 953.655 256.917 956.955 250.574C964.13 236.784 968.339 224.273 977.929 211.673C982.611 205.521 993.33 198.426 996.759 201.676C1000.73 205.445 998.641 213.597 991.703 227.138C983.152 243.827 965.6 262.033 950.281 262.469C947.397 262.551 944.515 262.232 941.719 261.523V261.525Z" fill="white"/>
</mask>
<g mask="url(#mask2_228_1692)">
<path d="M1004.66 207.525C993.663 204.945 982.758 205.562 972.309 209.793M1005.19 216.198C990.642 213.145 977.426 215.01 963.555 219.762M1001.33 225.487C988.64 221.932 974.137 224.32 962.046 229.168M996.096 235.17C981.349 231.918 965.843 236.043 952.491 242.219M988.998 244.592C975.796 244.134 961.751 247.383 949.78 252.925M974.165 256.794C965.47 256.395 957.213 257.85 948.917 260.338C944.492 261.664 940.09 263.088 936.102 265.454" stroke="white" stroke-width="1.09046" stroke-linecap="round" stroke-linejoin="round"/>
</g>
<path fill-rule="evenodd" clip-rule="evenodd" d="M941.794 261.206C945.284 261.948 948.165 260.825 950.583 258.755C953.052 256.644 955.035 253.556 956.664 250.424C963.848 236.616 968.068 224.089 977.668 211.475C980.983 207.113 987.295 202.3 991.971 200.926C994.088 200.304 995.883 200.396 996.987 201.438C998.642 203.006 999.309 205.301 999.024 208.397C998.611 212.886 996.189 219.112 991.997 227.289C986.845 237.343 978.44 247.94 969.217 254.908C963.034 259.579 956.481 262.617 950.293 262.798C947.381 262.881 944.472 262.56 941.648 261.843C941.055 261.716 940.472 261.547 939.903 261.337C939.878 261.328 939.853 261.316 939.831 261.3C936.466 260.153 933.443 258.282 931.657 255.468C930.549 253.704 929.961 251.663 929.961 249.58C929.945 248.683 929.945 247.896 929.945 247.107C929.946 247.02 929.981 246.936 930.043 246.875C930.104 246.814 930.188 246.779 930.275 246.779C930.318 246.779 930.36 246.787 930.4 246.804C930.44 246.82 930.476 246.844 930.506 246.875C930.536 246.905 930.56 246.941 930.576 246.981C930.592 247.021 930.6 247.064 930.6 247.107C930.6 247.894 930.6 248.677 930.615 249.569C930.616 251.529 931.168 253.449 932.209 255.111C934.224 258.286 937.897 260.186 941.805 261.2L941.794 261.206ZM945.674 261.932C947.198 262.119 948.734 262.192 950.269 262.151C956.337 261.974 962.755 258.973 968.807 254.393C977.954 247.482 986.289 236.967 991.399 226.996C995.543 218.927 997.942 212.779 998.356 208.343C998.62 205.49 998.047 203.366 996.522 201.92C995.563 201.011 993.99 201.017 992.145 201.56C987.565 202.902 981.417 207.621 978.187 211.878C968.611 224.46 964.41 236.959 957.25 250.731C955.582 253.939 953.543 257.095 951.015 259.259C949.436 260.609 947.67 261.575 945.681 261.939L945.674 261.932Z" fill="#030303"/>
<path fill-rule="evenodd" clip-rule="evenodd" d="M955.996 210.398C955.93 210.454 955.844 210.481 955.757 210.474C955.671 210.467 955.591 210.426 955.535 210.359C955.478 210.293 955.451 210.207 955.458 210.121C955.465 210.034 955.507 209.954 955.573 209.898C958.271 207.622 961.247 205.696 964.429 204.167C964.468 204.148 964.51 204.137 964.553 204.134C964.596 204.132 964.639 204.138 964.679 204.152C964.72 204.166 964.758 204.188 964.79 204.216C964.822 204.245 964.848 204.28 964.867 204.318C964.885 204.357 964.896 204.399 964.899 204.442C964.902 204.485 964.896 204.528 964.882 204.568C964.867 204.609 964.846 204.646 964.817 204.678C964.788 204.711 964.754 204.737 964.715 204.756C961.581 206.26 958.65 208.156 955.991 210.398H955.996ZM977.201 200.754C977.158 200.761 977.114 200.76 977.071 200.75C977.029 200.741 976.989 200.723 976.953 200.698C976.881 200.647 976.832 200.57 976.817 200.483C976.802 200.396 976.822 200.307 976.873 200.235C976.924 200.163 977.001 200.114 977.088 200.099C981.399 199.331 985.798 199.176 990.153 199.637C992.06 199.844 993.947 200.197 995.8 200.69C995.884 200.713 995.955 200.768 995.998 200.843C996.042 200.918 996.054 201.008 996.031 201.092C996.008 201.175 995.953 201.247 995.878 201.29C995.803 201.334 995.714 201.345 995.63 201.323C993.809 200.837 991.954 200.491 990.081 200.287C985.788 199.833 981.452 199.986 977.201 200.743V200.754Z" fill="#030303"/>
<path fill-rule="evenodd" clip-rule="evenodd" d="M931.674 255.501C931.622 255.434 931.598 255.349 931.608 255.264C931.617 255.18 931.659 255.102 931.725 255.048C931.791 254.995 931.875 254.968 931.96 254.976C932.045 254.983 932.124 255.023 932.18 255.087C936.151 259.931 942.43 260.033 946.373 257.002C952.026 252.64 954.312 245.321 957.633 236.922C962.512 224.583 968.003 213.615 974.712 206.825C979.235 202.246 984.308 199.585 990.118 199.628C990.205 199.628 990.288 199.663 990.349 199.724C990.411 199.786 990.445 199.869 990.445 199.956C990.445 200.042 990.411 200.126 990.349 200.187C990.288 200.248 990.205 200.283 990.118 200.283C984.485 200.235 979.569 202.847 975.181 207.279C968.525 214.005 963.088 224.899 958.246 237.145C954.874 245.67 952.514 253.083 946.776 257.503C942.593 260.727 935.902 260.635 931.678 255.484L931.674 255.501Z" fill="#030303"/>
<path fill-rule="evenodd" clip-rule="evenodd" d="M858.085 95.9402C864.789 93.201 869.829 86.7804 874.108 81.2212C873.672 81.8995 873.6 82.726 874.087 83.6813C874.198 83.8994 874.318 84.1174 874.446 84.3246C878.906 91.6503 894.214 95.9249 902.262 96.0514C903.821 96.0776 905.097 95.9467 905.989 95.6523C907.051 95.2968 907.679 94.78 907.976 94.1453C906.885 97.722 905.852 101.443 904.155 105.07C903.17 105.532 902.218 106.062 901.307 106.657C900.543 107.152 899.797 107.682 899.075 108.241C887.111 101.242 872.782 95.6305 858.074 95.9337L858.085 95.9402Z" fill="white" stroke="#030303" stroke-width="0.436184" stroke-miterlimit="10"/>
<path fill-rule="evenodd" clip-rule="evenodd" d="M903.486 105.397C902.737 105.778 902.009 106.198 901.305 106.657C900.542 107.152 899.796 107.682 899.074 108.24C887.798 101.645 874.421 96.2803 860.613 95.9401C873.533 94.2826 891.1 100.018 903.486 105.399V105.397Z" fill="#030303" stroke="#030303" stroke-width="0.218092" stroke-miterlimit="10"/>
<path fill-rule="evenodd" clip-rule="evenodd" d="M869.939 125.407C867.259 125.372 864.598 126.604 862.252 128.415C866.96 129.612 873.012 130.48 877.597 129.069C876.02 127.096 873.735 125.818 871.228 125.507C871.238 125.435 871.223 125.362 871.186 125.299C871.148 125.236 871.091 125.187 871.023 125.161C863.419 122.164 856.743 113.443 855.179 105.77C855.162 105.685 855.111 105.61 855.039 105.563C854.966 105.515 854.878 105.498 854.793 105.515C854.708 105.532 854.633 105.583 854.585 105.655C854.538 105.727 854.521 105.816 854.538 105.901C856.084 113.475 862.5 122.044 869.939 125.407Z" fill="#030303"/>
<path fill-rule="evenodd" clip-rule="evenodd" d="M917.33 117.676C916.814 116.685 916.02 115.867 915.045 115.321C916.164 113.556 917.034 111.395 917.119 109.395C917.21 107.214 916.377 105.214 913.95 104.102C913.18 103.754 912.365 103.516 911.529 103.393C909.008 103.005 906.38 103.677 904.02 104.774C902.22 105.694 900.511 106.784 898.917 108.028C898.85 108.083 898.808 108.163 898.8 108.249C898.792 108.336 898.819 108.422 898.874 108.489C898.93 108.556 899.01 108.598 899.096 108.606C899.183 108.614 899.269 108.587 899.336 108.531C900.885 107.322 902.545 106.262 904.295 105.367C906.539 104.324 909.032 103.67 911.429 104.041C912.205 104.154 912.962 104.374 913.677 104.695C915.819 105.674 916.545 107.437 916.465 109.367C916.384 111.297 915.529 113.353 914.449 115.037C913.735 114.755 912.97 114.623 912.203 114.651C911.435 114.679 910.681 114.865 909.989 115.198C909.526 115.417 909.09 115.693 908.694 116.018C907.969 116.675 907.441 117.52 907.167 118.459C906.988 119.2 907.122 119.89 907.789 120.304C908.365 120.664 909.139 120.603 909.944 120.269C911.034 119.833 912.175 118.897 912.901 118.14C912.993 118.042 913.093 117.933 913.198 117.813C913.701 117.231 914.305 116.424 914.694 115.866C915.578 116.352 916.298 117.089 916.763 117.983C917.323 119.019 917.541 120.206 917.385 121.373C917.045 124.073 914.964 126.607 912.853 128.223C912.676 128.358 912.469 128.513 912.24 128.674C911.348 127.896 910.356 127.416 909.049 127.922C907.632 128.469 907.481 130.125 908.727 130.5C909.371 130.666 910.053 130.61 910.661 130.341C911.19 130.119 911.694 129.844 912.166 129.518C913.148 130.806 913.599 132.421 913.427 134.031C912.633 140.371 907.285 146.482 899.523 146.745C900.121 145.485 900.672 144.191 901.176 142.863C901.207 142.782 901.204 142.692 901.168 142.613C901.133 142.534 901.067 142.472 900.985 142.441C900.904 142.411 900.814 142.414 900.735 142.449C900.656 142.485 900.594 142.551 900.563 142.632C900.005 144.111 899.387 145.547 898.708 146.942C894.426 155.746 887.838 162.745 879.481 166.659C879.441 166.677 879.406 166.703 879.376 166.734C879.347 166.766 879.324 166.803 879.309 166.844C879.294 166.885 879.288 166.928 879.29 166.971C879.292 167.014 879.303 167.057 879.321 167.096C873.692 169.656 867.28 170.862 860.245 170.31C854.923 163.593 852.394 154.608 852.326 146.076C851.08 152.594 851.703 159.332 854.121 165.512C854.738 167.079 855.578 168.548 856.616 169.874C859.161 173.156 862.853 175.673 866.709 176.212C856.677 176.846 848.315 172.533 839.814 166.814C835.511 163.918 831.136 160.926 828.201 156.544C828.177 156.509 828.146 156.478 828.11 156.454C828.074 156.431 828.034 156.414 827.992 156.406C827.949 156.398 827.906 156.398 827.864 156.407C827.822 156.415 827.782 156.432 827.746 156.456C827.71 156.48 827.68 156.511 827.656 156.547C827.632 156.583 827.616 156.623 827.608 156.665C827.599 156.707 827.6 156.751 827.608 156.793C827.617 156.835 827.634 156.875 827.658 156.911C830.639 161.355 835.073 164.413 839.45 167.355C848.924 173.715 858.249 178.338 869.808 176.513C869.894 176.499 869.97 176.452 870.021 176.381C870.072 176.311 870.092 176.223 870.079 176.138C874.728 175.265 877.683 171.183 879.485 167.259C879.528 167.279 879.575 167.289 879.622 167.289C879.67 167.289 879.716 167.279 879.76 167.259C888.193 163.309 894.858 156.276 899.209 147.413C907.497 147.308 913.237 140.833 914.079 134.109C914.258 132.339 913.765 130.567 912.698 129.143C912.899 128.999 913.082 128.86 913.241 128.74C915.483 127.023 917.664 124.317 918.026 121.451C918.198 120.151 917.954 118.83 917.33 117.676ZM912.692 117.384C912.596 117.495 912.504 117.602 912.417 117.687C911.745 118.389 910.685 119.251 909.682 119.665C909.1 119.907 908.541 120.01 908.125 119.748C907.708 119.486 907.689 119.063 907.793 118.612C908.027 117.809 908.48 117.087 909.102 116.527C909.456 116.234 909.846 115.987 910.262 115.792C910.851 115.507 911.491 115.343 912.145 115.309C912.798 115.275 913.452 115.371 914.068 115.593C913.699 116.128 913.152 116.854 912.692 117.384ZM910.413 129.73C909.941 129.946 909.41 129.997 908.906 129.874C908.236 129.671 908.515 128.825 909.274 128.53C910.249 128.155 910.995 128.5 911.673 129.056C911.276 129.322 910.854 129.548 910.413 129.73Z" fill="#030303"/>
<path d="M916.401 11.5564C916.138 10.9261 915.584 10.4267 914.759 10.0756C908.033 4.48804 899.331 1.07054 889.587 0.219984C880.528 -0.578232 870.853 0.800108 861.612 4.2067H861.602C861.368 3.6353 861.235 3.29072 861.011 2.74767C859.842 -0.0875244 858.83 0.597284 858.738 0.647445C858.302 0.887346 857.787 1.33225 858.542 3.6244C858.716 4.15872 858.934 4.65379 859.155 5.15104C849.478 9.15302 841.236 15.0284 835.348 22.1775C828.979 29.8957 825.73 38.7372 825.952 47.7422C825.813 48.2737 825.846 48.8357 826.046 49.3473C826.7 50.9394 829.071 51.4999 832.061 51.4999C834.933 51.4999 838.386 50.983 841.485 50.368C850.25 48.6233 861.495 45.0378 873.145 40.2704C873.226 40.2374 873.29 40.1738 873.323 40.0937C873.357 40.0135 873.357 39.9233 873.324 39.8429C873.291 39.7625 873.227 39.6985 873.147 39.6649C873.067 39.6314 872.977 39.6311 872.897 39.6641C861.283 44.4185 850.082 47.9908 841.358 49.7268C832.883 51.4105 827.523 51.1815 826.65 49.0944C826.499 48.6964 826.481 48.2604 826.598 47.8512C826.62 47.764 826.646 47.6746 826.676 47.583L826.711 47.4892C826.733 47.4281 826.755 47.3649 826.781 47.3016C826.807 47.2384 826.816 47.2253 826.833 47.1861C826.851 47.1468 826.884 47.0705 826.914 47.0116C826.945 46.9527 826.958 46.9243 826.982 46.8807C827.006 46.8371 827.038 46.7673 827.071 46.7106L827.152 46.5732C827.187 46.5143 827.219 46.4576 827.256 46.3987L827.352 46.2526C827.389 46.1937 827.427 46.137 827.468 46.076L827.575 45.9255C827.618 45.8644 827.66 45.8055 827.706 45.7445L827.823 45.5896L827.97 45.4042C828.011 45.3497 828.057 45.2974 828.1 45.2429L828.257 45.0531C828.303 44.9986 828.353 44.9441 828.401 44.8895L828.572 44.6954C828.622 44.6387 828.674 44.582 828.726 44.5275L828.91 44.3269L829.078 44.1546C829.143 44.087 829.206 44.0194 829.274 43.9517L829.453 43.7751L829.671 43.5679L829.863 43.3869L830.081 43.1688L830.288 42.9812L830.517 42.7631L830.735 42.569L830.931 42.3968L831.311 42.3837L831.727 42.3706H831.904C840.351 41.9344 854.433 38.0415 869.675 31.9414L869.765 31.9065C870.035 31.7997 870.303 31.6884 870.576 31.5794L871.346 31.2675L871.902 31.0385L873.324 30.4497C874.307 30.0397 875.283 29.6238 876.253 29.2022L876.279 29.1913L877.699 28.5697L877.88 28.489L879.13 27.9329L879.5 27.765L880.549 27.2895L880.966 27.0976L881.954 26.6418L882.401 26.4237L883.345 25.9875L883.801 25.7694C884.108 25.624 884.413 25.4786 884.717 25.3333L885.212 25.0934L886.071 24.6746L886.569 24.4304L887.411 24.0138L887.901 23.7674L888.728 23.3508L889.223 23.0978L890.025 22.6878L890.525 22.4435C890.787 22.3083 891.048 22.1731 891.308 22.0357C891.474 21.9507 891.635 21.8634 891.799 21.7762L892.562 21.3727L893.046 21.1088C893.295 20.9758 893.545 20.8427 893.79 20.7075L894.278 20.4393L894.996 20.0445L895.486 19.7697L896.173 19.3837L896.662 19.1046L897.316 18.7251L897.796 18.4437L898.45 18.0686L898.928 17.7851L899.547 17.4143L900.016 17.1286L900.616 16.7644L901.076 16.4787L901.648 16.1189L902.099 15.8332C902.284 15.7154 902.472 15.5976 902.653 15.4799L903.089 15.1876L903.615 14.8452L904.051 14.5508L904.553 14.2171L904.989 13.9205C905.148 13.8115 905.309 13.7024 905.464 13.5934L905.883 13.2989L906.334 12.9784L906.74 12.6839L907.176 12.3721L907.573 12.0733C907.706 11.9729 907.841 11.8726 907.97 11.7723L908.354 11.4735L908.727 11.1835C908.853 11.0831 908.973 10.9828 909.095 10.8847L909.444 10.6012C909.566 10.5008 909.682 10.4027 909.8 10.3024L910.079 10.069C910.173 10.069 910.264 10.069 910.358 10.069C910.489 10.069 910.62 10.069 910.746 10.069H910.938L911.42 10.0843H911.529C911.702 10.0843 911.874 10.1039 912.037 10.1192H912.129C912.293 10.1366 912.456 10.1541 912.609 10.1737L912.718 10.1911C912.862 10.2108 913.004 10.2326 913.139 10.2566L913.289 10.2893C913.403 10.3133 913.507 10.3351 913.623 10.3613L913.841 10.4223L914.059 10.4856C914.199 10.5314 914.332 10.5793 914.458 10.6317C915.145 10.9174 915.597 11.3056 915.797 11.7854C916.689 13.9161 912.921 18.0076 905.46 23.0106C897.768 28.1684 887.001 33.756 875.145 38.7415C875.065 38.7751 875.001 38.8391 874.969 38.9194C874.936 38.9998 874.936 39.09 874.969 39.1701C875.003 39.2502 875.067 39.3137 875.147 39.3466C875.228 39.3795 875.318 39.3792 875.398 39.3456C887.291 34.3666 898.097 28.7682 905.824 23.5776C915.898 16.8255 917.132 13.312 916.401 11.5564ZM889.53 0.869898C898.568 1.66811 906.694 4.68214 913.137 9.61538C912.999 9.59139 912.853 9.56958 912.7 9.54995H912.644C912.273 9.50197 911.878 9.46708 911.457 9.44527H911.35C911.152 9.44527 910.949 9.43 910.74 9.42564H910.605C910.386 9.42564 910.168 9.42564 909.937 9.42564C909.706 9.42564 909.447 9.43872 909.194 9.44963L908.794 9.46926L908.485 9.4867C905.165 9.7048 901.013 10.418 896.287 11.5804C888.872 6.6646 879.577 4.09984 869.507 4.09984C867.284 4.10219 865.062 4.22377 862.851 4.46405C871.697 1.3497 880.898 0.110939 889.53 0.872079V0.869898ZM853.347 27.8195C848.08 30.4366 843.354 33.0537 839.282 35.6097C840.964 24.5329 847.995 14.2651 859.205 6.49667C855.002 13.2052 853.033 20.3717 853.347 27.8195ZM860.295 6.01032L866.81 21.6606C862.358 23.5384 858.044 25.5121 853.99 27.5142C853.733 19.9878 855.848 12.7603 860.295 6.00814V6.01032ZM874.552 18.5484L874.502 18.5659L872.931 19.1743L872.661 19.279L871.287 19.8243L870.886 19.9835L869.577 20.5112L869.141 20.6879L867.529 21.3531L867.433 21.3945H867.412L860.925 5.82058C868.635 7.39302 875.897 10.9915 881.494 16.012C879.228 16.795 876.907 17.6455 874.552 18.5462V18.5484ZM882.198 15.7721C876.589 10.6448 869.285 6.94375 861.519 5.27317C874.268 3.60477 886.255 5.90782 895.432 11.7876C891.362 12.817 886.902 14.156 882.198 15.7699V15.7721ZM835.856 22.594C841.526 15.7241 849.393 10.0298 858.642 6.08883C847.207 14.0775 840.104 24.6637 838.556 36.0699C836.288 37.4967 834.096 39.0392 831.987 40.6913L831.974 40.7022C831.743 40.8876 831.516 41.0708 831.296 41.2518L831.21 41.3216C830.992 41.496 830.796 41.6683 830.598 41.8384H830.587C830.436 41.9671 830.292 42.0936 830.151 42.2223L830.035 42.327C829.919 42.4295 829.806 42.532 829.697 42.6345L829.614 42.7108C829.481 42.8329 829.352 42.9551 829.228 43.075L829.136 43.1644L828.846 43.4501L828.75 43.5461C828.635 43.6639 828.521 43.7816 828.412 43.8972L828.369 43.943C828.273 44.0455 828.181 44.1458 828.092 44.2462L828.005 44.3443C827.915 44.4425 827.83 44.5406 827.749 44.6366L827.714 44.6889C827.621 44.8001 827.533 44.907 827.446 45.016L827.379 45.1055C827.311 45.1905 827.246 45.2756 827.184 45.3584C827.165 45.3846 827.143 45.413 827.126 45.4391C827.049 45.5438 826.975 45.6463 826.908 45.7488L826.866 45.8143C826.809 45.8971 826.757 45.98 826.705 46.0629L826.652 46.1479L826.613 46.2112C826.764 37.891 829.943 29.7562 835.856 22.594Z" fill="white"/>
<path d="M922.788 153.777C922.087 152.014 920.36 147.799 919.625 147.419C919.427 147.317 919.071 147.321 918.644 147.397L913.826 135.269C913.81 135.229 913.787 135.193 913.757 135.162C913.727 135.131 913.691 135.107 913.651 135.09C913.612 135.073 913.569 135.064 913.527 135.063C913.484 135.062 913.441 135.07 913.401 135.086C913.361 135.102 913.324 135.126 913.294 135.156C913.263 135.186 913.238 135.221 913.221 135.261C913.204 135.3 913.195 135.343 913.194 135.386C913.194 135.429 913.202 135.472 913.218 135.511L913.388 135.937C913.145 136.853 912.815 137.744 912.402 138.597C912.343 138.572 912.278 138.565 912.215 138.576C912.152 138.587 912.094 138.617 912.047 138.661C912.001 138.705 911.968 138.762 911.954 138.824C911.939 138.886 911.943 138.952 911.966 139.012L915.772 148.525C915.556 148.647 915.373 148.819 915.239 149.027C914.803 149.964 916.428 154.043 917.05 155.748C917.538 157.094 919.481 162.195 920.757 163.019C922.295 164.02 924.637 163.456 924.934 161.467C925.147 159.896 923.355 155.203 922.788 153.777ZM913.822 141.915C914.258 141.317 914.642 140.685 915.023 140.057L918.007 147.55C917.433 147.717 916.875 147.936 916.341 148.204L913.822 141.915Z" fill="#030303"/>
<path d="M867.408 24.9655C867.394 24.9229 867.372 24.8836 867.342 24.85C867.312 24.8164 867.276 24.7893 867.236 24.7702C867.195 24.7512 867.151 24.7407 867.106 24.7394C867.062 24.7381 867.017 24.746 866.975 24.7626C866.934 24.7792 866.896 24.8042 866.864 24.8359C866.833 24.8677 866.808 24.9057 866.792 24.9474C866.776 24.9891 866.768 25.0337 866.77 25.0785C866.771 25.1232 866.782 25.1672 866.802 25.2076L876.35 49.2544C876.365 49.2954 876.388 49.333 876.417 49.365C876.447 49.3969 876.483 49.4226 876.523 49.4406C876.563 49.4585 876.606 49.4682 876.649 49.4692C876.693 49.4703 876.736 49.4626 876.777 49.4465C876.818 49.4305 876.855 49.4065 876.886 49.376C876.917 49.3455 876.942 49.309 876.959 49.2687C876.976 49.2284 876.984 49.1852 876.984 49.1415C876.984 49.0979 876.975 49.0547 876.958 49.0145L867.408 24.9655Z" fill="white"/>
<path d="M891.49 79.0339L890.162 75.6927C890.143 75.6432 890.112 75.5991 890.071 75.5645C890.031 75.5299 889.983 75.5057 889.931 75.4943C889.879 75.4826 889.824 75.4838 889.773 75.4979C889.721 75.5119 889.673 75.5384 889.634 75.575C889.514 75.6884 889.392 75.793 889.27 75.8977C888.786 76.3122 888.256 76.6707 887.691 76.9664C887.618 77.0035 887.562 77.0662 887.533 77.1423C887.504 77.2184 887.505 77.3026 887.534 77.3786L889.44 82.1766L899.56 107.674C899.575 107.714 899.599 107.75 899.629 107.781C899.659 107.812 899.695 107.836 899.734 107.853C899.774 107.87 899.816 107.879 899.859 107.88C899.902 107.881 899.945 107.873 899.985 107.857C900.025 107.841 900.061 107.817 900.092 107.787C900.123 107.757 900.148 107.722 900.165 107.682C900.182 107.643 900.191 107.6 900.191 107.557C900.192 107.514 900.184 107.472 900.168 107.432L890.125 82.1133C890.606 81.5511 890.99 80.9119 891.259 80.2225L901.662 106.409C901.678 106.449 901.701 106.485 901.731 106.516C901.761 106.547 901.797 106.571 901.837 106.588C901.876 106.605 901.919 106.615 901.962 106.615C902.005 106.616 902.047 106.608 902.087 106.592C902.127 106.576 902.164 106.552 902.194 106.522C902.225 106.493 902.25 106.457 902.267 106.417C902.284 106.378 902.293 106.335 902.294 106.292C902.294 106.249 902.286 106.207 902.27 106.167L891.49 79.0339Z" fill="white"/>
<path d="M870.219 25.4775C870.184 25.4014 870.121 25.3415 870.044 25.3101C869.966 25.2787 869.88 25.2781 869.802 25.3086C869.724 25.339 869.661 25.3981 869.625 25.4737C869.589 25.5493 869.584 25.6357 869.61 25.7152L878.598 48.316C878.613 48.3559 878.637 48.3922 878.667 48.4229C878.696 48.4537 878.732 48.4783 878.771 48.4953C878.81 48.5123 878.853 48.5214 878.896 48.5221C878.938 48.5228 878.981 48.515 879.021 48.4992C879.061 48.4835 879.097 48.4601 879.128 48.4303C879.158 48.4005 879.183 48.3649 879.2 48.3256C879.217 48.2864 879.226 48.2441 879.227 48.2013C879.227 48.1585 879.22 48.116 879.204 48.0761L870.219 25.4775Z" fill="white"/>
</g>
<defs>
<filter id="filter0_f_228_1692" x="754.411" y="38.4109" width="355.178" height="302.178" filterUnits="userSpaceOnUse" color-interpolation-filters="sRGB">
<feFlood flood-opacity="0" result="BackgroundImageFix"/>
<feBlend mode="normal" in="SourceGraphic" in2="BackgroundImageFix" result="shape"/>
<feGaussianBlur stdDeviation="33.2946" result="effect1_foregroundBlur_228_1692"/>
</filter>
<filter id="filter1_f_228_1692" x="584" y="85" width="342" height="325" filterUnits="userSpaceOnUse" color-interpolation-filters="sRGB">
<feFlood flood-opacity="0" result="BackgroundImageFix"/>
<feBlend mode="normal" in="SourceGraphic" in2="BackgroundImageFix" result="shape"/>
<feGaussianBlur stdDeviation="50" result="effect1_foregroundBlur_228_1692"/>
</filter>
<filter id="filter2_f_228_1692" x="654" y="-15" width="376" height="356" filterUnits="userSpaceOnUse" color-interpolation-filters="sRGB">
<feFlood flood-opacity="0" result="BackgroundImageFix"/>
<feBlend mode="normal" in="SourceGraphic" in2="BackgroundImageFix" result="shape"/>
<feGaussianBlur stdDeviation="50" result="effect1_foregroundBlur_228_1692"/>
</filter>
<filter id="filter3_f_228_1692" x="865.411" y="121.411" width="317.178" height="275.178" filterUnits="userSpaceOnUse" color-interpolation-filters="sRGB">
<feFlood flood-opacity="0" result="BackgroundImageFix"/>
<feBlend mode="normal" in="SourceGraphic" in2="BackgroundImageFix" result="shape"/>
<feGaussianBlur stdDeviation="33.2946" result="effect1_foregroundBlur_228_1692"/>
</filter>
<clipPath id="clip0_228_1692">
<rect width="222.733" height="266" fill="white" transform="translate(783)"/>
</clipPath>
</defs>
</svg>
