<svg width="306" height="50" viewBox="0 0 306 50" fill="none" xmlns="http://www.w3.org/2000/svg">
<path d="M95.7812 48.9996V9H102.715V34.1731C102.715 34.8664 103.408 35.2397 104.048 35.2397C104.741 35.2397 105.381 34.8664 105.381 34.1731V28.6798L111.515 22.3332H121.115L112.901 30.8665L122.928 48.9996H114.981L107.461 35.4531L102.715 40.093V48.9996H95.7812Z" fill="#030303"/>
<path d="M81.1571 22.3335H84.6771C90.2771 22.3335 94.0104 26.0668 94.0104 31.6667V48.9999H87.0771V33.8C87.0771 31.0801 85.2637 29.2668 82.5437 29.2668H78.8104C76.0904 29.2668 74.2771 31.0801 74.2771 33.8V48.9999H67.3438V22.3335H74.2771V26.1735C74.2771 27.1334 74.9704 27.6668 75.6104 27.6668C76.3037 27.6668 76.9438 27.1334 76.9438 26.1735C76.9438 23.4002 78.8104 22.3335 81.1571 22.3335Z" fill="#030303"/>
<path d="M58.0469 14.12V10.7066C58.0469 9.69333 58.7402 9 59.7535 9H63.2735C64.2869 9 64.9802 9.69333 64.9802 10.7066V14.12C64.9802 15.1333 64.2869 15.8266 63.2735 15.8266H59.7535C58.7402 15.8266 58.0469 15.1333 58.0469 14.12ZM58.0469 48.9996V22.3332H64.9802V48.9996H58.0469Z" fill="#030303"/>
<path d="M42.2508 22.3332H45.7708C51.3708 22.3332 55.1042 26.0665 55.1042 31.6664V48.9996H48.1708V33.7998C48.1708 31.0798 46.3575 29.2665 43.6375 29.2665H39.9042C37.1842 29.2665 35.3708 31.0798 35.3708 33.7998V48.9996H28.4375V9H35.3708V26.2265C35.3708 27.1865 36.0642 27.7198 36.7042 27.7198C37.3975 27.7198 38.0375 27.1865 38.0375 26.2265C38.0375 23.5065 39.9042 22.3332 42.2508 22.3332Z" fill="#030303"/>
<path d="M9.86667 49V18.6003H0V11.667H26.6667V18.6003H16.8V49H9.86667Z" fill="#030303"/>
<path d="M278.633 48.9996V9H285.566V34.1731C285.566 34.8664 286.259 35.2397 286.899 35.2397C287.593 35.2397 288.233 34.8664 288.233 34.1731V28.6798L294.366 22.3332H303.966L295.753 30.8665L305.779 48.9996H297.833L290.313 35.4531L285.566 40.093V48.9996H278.633Z" fill="#030303"/>
<path d="M264.009 22.3335H267.529C273.129 22.3335 276.862 26.0668 276.862 31.6667V48.9999H269.929V33.8C269.929 31.0801 268.115 29.2668 265.395 29.2668H261.662C258.942 29.2668 257.129 31.0801 257.129 33.8V48.9999H250.195V22.3335H257.129V26.1735C257.129 27.1334 257.822 27.6668 258.462 27.6668C259.155 27.6668 259.795 27.1334 259.795 26.1735C259.795 23.4002 261.662 22.3335 264.009 22.3335Z" fill="#030303"/>
<path d="M248.424 48.9999H241.491V45.1066C241.491 44.0933 240.851 43.6133 240.158 43.6133C239.518 43.6133 238.824 44.0933 238.824 45.1066C238.824 47.8266 236.958 48.9999 234.611 48.9999H231.091C225.491 48.9999 221.758 45.2666 221.758 39.6667V31.6667C221.758 26.0668 225.491 22.3335 231.091 22.3335H234.611C236.958 22.3335 238.824 23.6135 238.824 26.2801C238.824 27.2401 239.518 27.7734 240.158 27.7734C240.851 27.7734 241.491 27.2401 241.491 26.2801V22.3335H248.424V48.9999ZM233.224 42.0666H236.958C239.678 42.0666 241.491 40.2533 241.491 37.5333V33.8534C241.491 31.1334 239.678 29.2668 236.958 29.2668H233.224C230.504 29.2668 228.691 31.0801 228.691 33.8V37.5333C228.691 40.2533 230.504 42.0666 233.224 42.0666Z" fill="#030303"/>
<path d="M205.164 48.9995V18.5998H195.297V11.6665H221.964V18.5998H212.097V48.9995H205.164Z" fill="#030303"/>
<path d="M188.713 49.045C188.713 45.1638 187.948 41.3205 186.463 37.7347C184.978 34.1489 182.801 30.8907 180.056 28.1463C177.312 25.4018 174.053 23.2248 170.468 21.7395C166.882 20.2542 163.038 19.4897 159.157 19.4897C155.276 19.4897 151.433 20.2542 147.847 21.7395C144.261 23.2248 141.003 25.4018 138.258 28.1463C135.514 30.8907 133.337 34.1489 131.851 37.7347C130.366 41.3205 129.602 45.1638 129.602 49.045L159.157 49.045H188.713Z" fill="white"/>
<mask id="mask0_368_276" style="mask-type:alpha" maskUnits="userSpaceOnUse" x="129" y="19" width="60" height="31">
<path d="M188.713 49.045C188.713 41.2065 185.599 33.689 180.056 28.1463C174.513 22.6036 166.996 19.4897 159.157 19.4897C151.319 19.4897 143.801 22.6036 138.258 28.1463C132.715 33.689 129.602 41.2065 129.602 49.045L159.157 49.045H188.713Z" fill="#557AFF"/>
</mask>
<g mask="url(#mask0_368_276)">
<g filter="url(#filter0_f_368_276)">
<ellipse cx="165.694" cy="34.5118" rx="19.7333" ry="15.0221" fill="#4AE5E8"/>
</g>
<g filter="url(#filter1_f_368_276)">
<ellipse cx="134.224" cy="44.8234" rx="12.6222" ry="11.111" fill="#FF0000"/>
</g>
<g filter="url(#filter2_f_368_276)">
<ellipse cx="149.691" cy="29.8006" rx="15.6444" ry="13.8665" fill="#FFF500"/>
</g>
<g filter="url(#filter3_f_368_276)">
<ellipse cx="182.043" cy="46.8667" rx="16.3556" ry="12.6221" fill="#FD2FE8"/>
</g>
</g>
<g clip-path="url(#clip0_368_276)">
<path fill-rule="evenodd" clip-rule="evenodd" d="M145.063 31.2954C145.027 31.0946 144.994 30.8941 144.962 30.6941C144.231 26.0946 145.732 19.3767 150.441 18.1631C151.132 17.9867 151.84 17.8912 152.552 17.8786C155.165 17.8247 157.712 18.8222 159.841 20.0664C159.46 20.3615 159.115 20.6998 158.812 21.0745C158.311 21.6948 157.891 22.4074 157.314 22.963C157.092 23.1818 156.844 23.3719 156.574 23.5287C156.399 23.628 156.214 23.708 156.022 23.7672C155.877 23.5854 155.696 23.4349 155.491 23.3248C155.286 23.2147 155.061 23.1473 154.83 23.1267C154.789 23.1223 154.748 23.1192 154.705 23.1174C154.213 23.0956 153.723 23.3194 153.291 23.6516C152.719 24.0932 152.251 24.7268 152.022 25.2323C151.303 26.822 151.197 28.571 151.846 30.2447C151.956 30.5232 152.105 30.7844 152.29 31.0201C152.819 31.7029 153.628 32.2004 154.436 32.1643C154.499 32.1614 154.562 32.1551 154.625 32.1457L154.649 32.1418C155.517 31.9968 156.057 31.2268 156.379 30.5041C157.877 29.8027 159.058 28.5492 159.825 26.9716C161.287 26.9716 162.299 25.8364 162.447 24.6581C162.496 24.2685 162.303 23.8955 162.172 23.773C162.228 23.7342 162.279 23.6954 162.321 23.6644C162.708 23.3686 163.086 22.9026 163.149 22.4078C163.775 22.9324 164.29 23.4159 164.666 23.7955C168.102 27.2717 171.453 30.9143 173.717 36.4555C173.031 35.9232 171.892 35.7072 170.738 35.9515C167.283 36.6881 162.609 40.4816 161.979 44.7181C161.949 44.9118 161.976 45.1102 162.057 45.2888C160.688 42.5799 158.71 40.176 156.513 38.0944C155.217 41.4303 153.02 44.3509 149.091 43.4677C148.364 43.2997 147.672 43.0063 147.045 42.6008C146.16 42.0328 145.386 41.3853 144.73 40.5568C143.498 39.0005 142.592 37.3124 141.659 35.5789C141.594 35.4591 141.53 35.3385 141.465 35.2183C141.436 34.6201 141.565 34.0248 141.838 33.4918C142.446 32.3012 143.721 31.5102 145.144 31.7339C145.117 31.5881 145.09 31.4425 145.064 31.297L145.063 31.2954Z" fill="white"/>
<mask id="mask1_368_276" style="mask-type:luminance" maskUnits="userSpaceOnUse" x="141" y="17" width="33" height="29">
<path d="M145.055 31.2949C145.019 31.0941 144.986 30.8936 144.954 30.6936C144.223 26.0941 145.724 19.3762 150.434 18.1626C151.124 17.9862 151.832 17.8907 152.544 17.8781C155.157 17.8242 157.704 18.8218 159.833 20.0659C159.453 20.361 159.107 20.6993 158.804 21.074C158.303 21.6943 157.884 22.407 157.307 22.9626C157.085 23.1813 156.836 23.3714 156.566 23.5282C156.392 23.6275 156.207 23.7075 156.014 23.7667C155.869 23.5849 155.689 23.4344 155.484 23.3243C155.279 23.2142 155.054 23.1468 154.822 23.1262C154.781 23.1218 154.74 23.1187 154.697 23.1169C154.205 23.0952 153.715 23.3189 153.284 23.6511C152.711 24.0927 152.243 24.7263 152.015 25.2318C151.295 26.8215 151.19 28.5705 151.838 30.2442C151.948 30.5228 152.097 30.7839 152.282 31.0197C152.811 31.7024 153.62 32.1999 154.428 32.1638C154.491 32.1609 154.555 32.1547 154.617 32.1452L154.641 32.1413C155.509 31.9963 156.049 31.2263 156.371 30.5036C157.869 29.8022 159.05 28.5488 159.817 26.9711C161.279 26.9711 162.292 25.8359 162.439 24.6576C162.488 24.268 162.295 23.895 162.164 23.7725C162.221 23.7337 162.271 23.6949 162.313 23.6639C162.701 23.3681 163.079 22.9021 163.141 22.4073C163.768 22.9319 164.282 23.4154 164.658 23.795C168.094 27.2712 171.446 30.9138 173.709 36.455C173.023 35.9227 171.884 35.7067 170.731 35.951C167.275 36.6877 162.601 40.4811 161.972 44.7176C161.941 44.9114 161.968 45.1097 162.049 45.2883C160.68 42.5794 158.702 40.1755 156.505 38.0939C155.209 41.4298 153.012 44.3505 149.084 43.4672C148.356 43.2992 147.664 43.0058 147.037 42.6003C146.152 42.0323 145.378 41.3848 144.722 40.5563C143.49 39 142.584 37.3119 141.651 35.5784C141.587 35.4586 141.522 35.338 141.457 35.2178C141.428 34.6196 141.557 34.0243 141.83 33.4913C142.438 32.3007 143.714 31.5097 145.137 31.7334C145.109 31.5877 145.082 31.442 145.056 31.2965L145.055 31.2949Z" fill="white"/>
</mask>
<g mask="url(#mask1_368_276)">
<path fill-rule="evenodd" clip-rule="evenodd" d="M144.008 31.766C144.38 31.6836 144.764 31.6721 145.14 31.7322C145.296 32.5489 145.484 33.3686 145.705 34.1802C145.705 34.1802 144.813 32.8692 144.008 31.766Z" fill="#030303"/>
<path fill-rule="evenodd" clip-rule="evenodd" d="M157.463 39.0285C157.153 38.7105 156.837 38.3995 156.516 38.0955C157.076 36.6569 157.468 35.1411 157.761 33.8203C157.753 35.5604 157.654 37.2988 157.463 39.0285Z" fill="#030303"/>
<path fill-rule="evenodd" clip-rule="evenodd" d="M173.97 34.3825C174.029 34.4405 174.062 34.5193 174.062 34.6015C174.062 34.6838 174.03 34.7628 173.972 34.8212C173.914 34.8796 173.835 34.9126 173.753 34.913C173.671 34.9133 173.592 34.8809 173.533 34.823C173.074 34.3678 172.243 34.1639 171.295 34.1429C169.796 34.1077 168.004 34.5489 166.787 35.3697C163.406 37.6514 161.215 40.8465 160.148 44.7465C160.125 44.8252 160.073 44.8918 160.002 44.932C159.93 44.9721 159.846 44.9825 159.767 44.9609C159.688 44.9393 159.621 44.8874 159.58 44.8165C159.54 44.7457 159.528 44.6616 159.549 44.5825C160.657 40.5379 162.932 37.2226 166.44 34.8567C167.755 33.9681 169.689 33.4846 171.312 33.5226C172.444 33.5493 173.423 33.8386 173.972 34.3825H173.97Z" fill="#030303"/>
<path fill-rule="evenodd" clip-rule="evenodd" d="M144.907 32.2623C144.989 32.264 145.067 32.2983 145.124 32.3576C145.181 32.417 145.212 32.4966 145.211 32.5789C145.209 32.6612 145.175 32.7394 145.115 32.7964C145.056 32.8533 144.976 32.8844 144.894 32.8827C143.519 32.8544 142.361 34.1895 142.316 36.907C142.314 36.9893 142.28 37.0676 142.221 37.1248C142.162 37.182 142.083 37.2133 142 37.212C141.918 37.2106 141.84 37.1766 141.783 37.1174C141.725 37.0582 141.694 36.9788 141.695 36.8965C141.748 33.6908 143.285 32.2293 144.907 32.2623Z" fill="#030303"/>
<path fill-rule="evenodd" clip-rule="evenodd" d="M147.146 38.1106C147.152 38.1247 147.152 38.1408 147.147 38.1552C147.141 38.1697 147.13 38.1813 147.116 38.1876C147.102 38.1939 147.086 38.1943 147.071 38.1887C147.057 38.1831 147.045 38.1721 147.039 38.1579C146.142 36.1415 145.497 33.9312 145.079 31.7426C145.076 31.7275 145.079 31.7118 145.088 31.699C145.097 31.6862 145.11 31.6773 145.125 31.6744C145.14 31.6715 145.156 31.6747 145.169 31.6833C145.182 31.692 145.191 31.7054 145.194 31.7205C145.609 33.9002 146.254 36.1012 147.146 38.1106Z" fill="#030303"/>
<path fill-rule="evenodd" clip-rule="evenodd" d="M156.573 38.1167C156.571 38.1238 156.567 38.1304 156.561 38.1359C156.556 38.1414 156.55 38.1458 156.543 38.1489C156.536 38.152 156.528 38.1537 156.52 38.1538C156.513 38.154 156.505 38.1526 156.498 38.1499C156.491 38.1471 156.484 38.1429 156.479 38.1376C156.473 38.1324 156.469 38.126 156.466 38.119C156.463 38.112 156.461 38.1045 156.461 38.0968C156.461 38.0892 156.462 38.0816 156.465 38.0745C157.095 36.4565 157.512 34.7401 157.815 33.3164C157.994 32.4669 158.082 31.5992 158.23 30.7439C158.231 30.7363 158.234 30.729 158.238 30.7224C158.243 30.7159 158.248 30.7102 158.254 30.7057C158.261 30.7012 158.268 30.698 158.275 30.6963C158.283 30.6946 158.291 30.6944 158.298 30.6957C158.306 30.697 158.313 30.6997 158.32 30.7039C158.326 30.708 158.332 30.7134 158.336 30.7197C158.341 30.726 158.344 30.7331 158.346 30.7407C158.348 30.7482 158.348 30.7561 158.347 30.7637C158.198 31.6206 158.11 32.4894 157.93 33.3408C157.626 34.7696 157.205 36.4914 156.573 38.1167Z" fill="#030303"/>
</g>
<path fill-rule="evenodd" clip-rule="evenodd" d="M145.063 31.2954C145.027 31.0946 144.994 30.8941 144.962 30.6941C144.231 26.0946 145.732 19.3767 150.441 18.1631C151.132 17.9867 151.84 17.8912 152.552 17.8786C155.165 17.8247 157.712 18.8222 159.841 20.0664C159.46 20.3615 159.115 20.6998 158.812 21.0745C158.311 21.6948 157.891 22.4074 157.314 22.963C157.092 23.1818 156.844 23.3719 156.574 23.5287C156.399 23.628 156.214 23.708 156.022 23.7672C155.877 23.5854 155.696 23.4349 155.491 23.3248C155.286 23.2147 155.061 23.1473 154.83 23.1267C154.789 23.1223 154.748 23.1192 154.705 23.1174C154.213 23.0956 153.723 23.3194 153.291 23.6516C152.719 24.0932 152.251 24.7268 152.022 25.2323C151.303 26.822 151.197 28.571 151.846 30.2447C151.956 30.5232 152.105 30.7844 152.29 31.0201C152.819 31.7029 153.628 32.2004 154.436 32.1643C154.499 32.1614 154.562 32.1551 154.625 32.1457L154.649 32.1418C155.517 31.9968 156.057 31.2268 156.379 30.5041C157.877 29.8027 159.058 28.5492 159.825 26.9716C161.287 26.9716 162.299 25.8364 162.447 24.6581C162.496 24.2685 162.303 23.8955 162.172 23.773C162.228 23.7342 162.279 23.6954 162.321 23.6644C162.708 23.3686 163.086 22.9026 163.149 22.4078C163.775 22.9324 164.29 23.4159 164.666 23.7955C168.102 27.2717 171.453 30.9143 173.717 36.4555C173.031 35.9232 171.892 35.7072 170.738 35.9515C167.283 36.6881 162.609 40.4816 161.979 44.7181C161.949 44.9118 161.976 45.1102 162.057 45.2888C160.688 42.5799 158.71 40.176 156.513 38.0944C155.217 41.4303 153.02 44.3509 149.091 43.4677C148.364 43.2997 147.672 43.0063 147.045 42.6008C146.16 42.0328 145.386 41.3853 144.73 40.5568C143.498 39.0005 142.592 37.3124 141.659 35.5789C141.594 35.4591 141.53 35.3385 141.465 35.2183C141.436 34.6201 141.565 34.0248 141.838 33.4918C142.446 32.3012 143.721 31.5102 145.144 31.7339C145.117 31.5881 145.09 31.4425 145.064 31.297L145.063 31.2954Z" stroke="#030303" stroke-width="0.0775434" stroke-miterlimit="10"/>
<path fill-rule="evenodd" clip-rule="evenodd" d="M141.263 31.7202L141.655 32.9308C141.714 33.1146 141.774 33.3 141.836 33.4908C141.563 34.0238 141.434 34.6192 141.463 35.2175C141.528 35.3377 141.593 35.4583 141.657 35.5781C141.444 35.5798 141.232 35.5392 141.034 35.4588C140.837 35.3784 140.657 35.2598 140.505 35.1097C140.195 33.7428 140.538 32.6222 141.262 31.7202H141.263Z" fill="#030303"/>
<path fill-rule="evenodd" clip-rule="evenodd" d="M141.066 31.3043C141.063 31.297 141.062 31.2892 141.063 31.2814C141.063 31.2736 141.065 31.2659 141.068 31.2589C141.072 31.2518 141.077 31.2456 141.082 31.2404C141.088 31.2353 141.095 31.2314 141.103 31.2289C141.11 31.2265 141.118 31.2256 141.126 31.2263C141.133 31.227 141.141 31.2292 141.148 31.2329C141.155 31.2366 141.161 31.2416 141.166 31.2477C141.171 31.2537 141.174 31.2608 141.177 31.2683C141.376 31.8759 141.687 32.8643 141.885 33.4728C141.889 33.4872 141.888 33.5027 141.88 33.516C141.873 33.5293 141.861 33.5393 141.847 33.544C141.833 33.5487 141.817 33.5476 141.804 33.5411C141.79 33.5345 141.78 33.5229 141.775 33.5088C141.576 32.9008 141.266 31.9124 141.066 31.3043Z" fill="#030303"/>
<path fill-rule="evenodd" clip-rule="evenodd" d="M143.625 28.7233C143.621 28.7165 143.618 28.7089 143.618 28.7011C143.617 28.6932 143.617 28.6853 143.62 28.6778C143.622 28.6702 143.626 28.6632 143.631 28.6572C143.636 28.6511 143.642 28.6461 143.649 28.6426C143.656 28.639 143.664 28.6369 143.672 28.6364C143.679 28.6358 143.687 28.6369 143.695 28.6395C143.702 28.6422 143.709 28.6463 143.715 28.6516C143.721 28.6569 143.725 28.6634 143.728 28.6706C144.178 29.55 144.604 30.4155 145.112 31.2659C145.12 31.2792 145.122 31.295 145.118 31.31C145.115 31.325 145.105 31.3378 145.092 31.3458C145.085 31.3497 145.078 31.3523 145.07 31.3534C145.063 31.3545 145.055 31.3541 145.048 31.3523C145.04 31.3504 145.034 31.3471 145.027 31.3425C145.021 31.3379 145.016 31.3322 145.012 31.3256C144.502 30.4749 144.075 29.6055 143.625 28.7233Z" fill="#030303"/>
<path fill-rule="evenodd" clip-rule="evenodd" d="M141.659 35.5197C141.674 35.5197 141.689 35.5258 141.7 35.5367C141.711 35.5477 141.717 35.5624 141.717 35.5779C141.717 35.5933 141.711 35.6081 141.7 35.619C141.689 35.6299 141.674 35.636 141.659 35.636C140.496 35.6248 139.821 34.6136 139.734 33.2954C139.67 32.3056 139.631 29.4601 141.158 27.7011C142.252 26.4398 143.918 27.0881 144.27 28.2225C144.275 28.2373 144.273 28.2533 144.266 28.2669C144.259 28.2806 144.247 28.2908 144.232 28.2954C144.217 28.3 144.201 28.2985 144.188 28.2913C144.174 28.2841 144.164 28.2718 144.159 28.257C143.83 27.1955 142.269 26.5972 141.246 27.777C139.744 29.5094 139.786 32.3133 139.85 33.2873C139.932 34.5372 140.558 35.5089 141.66 35.5193L141.659 35.5197Z" fill="#030303"/>
<path fill-rule="evenodd" clip-rule="evenodd" d="M141.671 35.5161C141.686 35.5134 141.702 35.5169 141.715 35.5259C141.728 35.5349 141.737 35.5486 141.739 35.564C141.742 35.5794 141.738 35.5953 141.729 35.6081C141.721 35.621 141.707 35.6297 141.691 35.6324C140.367 35.8686 139.514 34.6829 139.289 33.5202C139.145 32.7773 139.208 32.0364 139.289 31.2908C139.38 30.4429 139.584 29.4488 139.946 28.6284C140.189 28.0755 140.506 27.6005 140.907 27.3001C141.16 27.1101 141.453 26.9309 141.756 26.8402C142.008 26.7654 142.269 26.7306 142.532 26.7371C143.351 26.7549 143.863 27.2186 144.136 27.8378C144.405 28.4477 144.441 29.2099 144.31 29.8365C144.309 29.844 144.306 29.8511 144.302 29.8574C144.297 29.8637 144.292 29.8691 144.285 29.8733C144.279 29.8775 144.272 29.8804 144.264 29.8818C144.257 29.8833 144.249 29.8832 144.242 29.8817C144.234 29.8801 144.227 29.8771 144.221 29.8728C144.214 29.8685 144.209 29.863 144.205 29.8566C144.201 29.8502 144.198 29.8431 144.196 29.8355C144.195 29.828 144.195 29.8203 144.196 29.8128C144.322 29.2084 144.289 28.4729 144.03 27.8847C143.774 27.3055 143.296 26.8701 142.529 26.8534C142.28 26.8475 142.031 26.8806 141.792 26.9515C141.501 27.0387 141.222 27.2113 140.978 27.3927C140.59 27.6839 140.287 28.1429 140.052 28.6764C139.694 29.486 139.493 30.4669 139.404 31.304C139.326 32.0379 139.262 32.7676 139.404 33.4985C139.619 34.6023 140.412 35.7422 141.671 35.5169V35.5161Z" fill="#030303"/>
<path fill-rule="evenodd" clip-rule="evenodd" d="M141.133 31.2866C141.333 31.8943 141.643 32.8827 141.842 33.4907Z" fill="#030303"/>
<path fill-rule="evenodd" clip-rule="evenodd" d="M150.294 16.2728C149.427 15.5178 149.319 13.9869 149.907 12.772C150.071 12.4331 150.343 12.0562 150.682 11.8115C150.915 11.6447 151.179 11.5401 151.463 11.5435C151.747 11.547 152.02 11.6599 152.266 11.7975C152.455 11.9072 152.623 12.0481 152.765 12.2144C153.305 12.8298 154.107 14.2533 153.427 15.619C153.179 16.1177 152.739 16.398 152.412 16.5365C151.846 16.7769 150.906 16.8079 150.292 16.2728H150.294ZM150.372 16.1852C150.951 16.6893 151.837 16.6559 152.371 16.4294C152.678 16.2992 153.093 16.0366 153.327 15.567C153.981 14.2525 153.201 12.8837 152.681 12.2912C152.548 12.1347 152.39 12.002 152.213 11.8987C151.984 11.7692 151.732 11.6641 151.465 11.6599C151.206 11.6556 150.966 11.7537 150.754 11.9061C150.429 12.1388 150.17 12.4994 150.014 12.8228C149.449 13.9888 149.539 15.4596 150.372 16.1852Z" fill="white"/>
<path fill-rule="evenodd" clip-rule="evenodd" d="M151.388 10.9392C151.395 10.9418 151.402 10.9457 151.407 10.9509C151.413 10.956 151.418 10.9622 151.421 10.9691C151.424 10.976 151.426 10.9835 151.427 10.9912C151.427 10.9988 151.426 11.0065 151.423 11.0137C151.421 11.0209 151.417 11.0276 151.412 11.0333C151.407 11.039 151.4 11.0436 151.393 11.047C151.387 11.0503 151.379 11.0522 151.371 11.0526C151.364 11.053 151.356 11.0519 151.349 11.0494C150.808 10.866 150.232 10.705 149.667 10.8555C149.652 10.8595 149.636 10.8574 149.623 10.8497C149.61 10.842 149.6 10.8293 149.596 10.8144C149.592 10.7995 149.594 10.7836 149.602 10.7702C149.609 10.7568 149.622 10.747 149.637 10.743C150.225 10.586 150.824 10.7477 151.386 10.9369L151.388 10.9392Z" fill="white"/>
<path fill-rule="evenodd" clip-rule="evenodd" d="M150.583 11.3867C150.599 11.3876 150.613 11.3946 150.623 11.4062C150.634 11.4178 150.639 11.4329 150.638 11.4484C150.637 11.4638 150.63 11.4782 150.619 11.4885C150.607 11.4987 150.592 11.504 150.576 11.503C150.061 11.4716 149.564 11.5965 149.155 11.9183C149.143 11.9273 149.128 11.9312 149.113 11.9291C149.098 11.9271 149.084 11.9193 149.075 11.9074C149.066 11.8955 149.061 11.8804 149.063 11.8654C149.064 11.8503 149.072 11.8365 149.083 11.8268C149.515 11.4871 150.04 11.3537 150.583 11.3867Z" fill="white"/>
<path fill-rule="evenodd" clip-rule="evenodd" d="M150.19 12.354C150.197 12.3509 150.204 12.3493 150.212 12.3491C150.219 12.349 150.227 12.3504 150.234 12.3531C150.241 12.3559 150.248 12.3601 150.253 12.3654C150.259 12.3707 150.263 12.377 150.266 12.384C150.269 12.391 150.271 12.3986 150.271 12.4062C150.271 12.4138 150.27 12.4214 150.267 12.4285C150.264 12.4357 150.26 12.4421 150.255 12.4477C150.249 12.4532 150.243 12.4576 150.236 12.4606C149.892 12.6111 149.6 12.8589 149.395 13.1733C149.387 13.1859 149.374 13.1946 149.359 13.1977C149.344 13.2008 149.329 13.198 149.316 13.1898C149.303 13.1817 149.294 13.1689 149.291 13.1542C149.287 13.1394 149.29 13.1239 149.297 13.1109C149.514 12.777 149.824 12.514 150.189 12.354H150.19Z" fill="white"/>
<path fill-rule="evenodd" clip-rule="evenodd" d="M151.212 13.2805C151.211 13.273 151.211 13.2653 151.212 13.2578C151.213 13.2503 151.216 13.2431 151.22 13.2367C151.225 13.2303 151.23 13.2248 151.236 13.2205C151.243 13.2162 151.25 13.2132 151.257 13.2117C151.265 13.2101 151.273 13.21 151.28 13.2115C151.288 13.2129 151.295 13.2158 151.301 13.22C151.307 13.2242 151.313 13.2296 151.317 13.2359C151.322 13.2422 151.325 13.2494 151.326 13.2568C151.375 13.4926 151.421 13.7342 151.491 13.9649C151.494 13.9722 151.494 13.9799 151.494 13.9875C151.493 13.9951 151.491 14.0025 151.487 14.0093C151.484 14.016 151.479 14.022 151.473 14.0268C151.467 14.0317 151.46 14.0354 151.453 14.0376C151.445 14.0399 151.438 14.0406 151.43 14.0399C151.423 14.0392 151.415 14.037 151.408 14.0334C151.402 14.0298 151.396 14.0249 151.391 14.019C151.386 14.0131 151.382 14.0063 151.38 13.999C151.309 13.7664 151.264 13.5197 151.212 13.2805Z" fill="white"/>
<path fill-rule="evenodd" clip-rule="evenodd" d="M152.055 12.999C152.053 12.9842 152.056 12.9691 152.065 12.9567C152.073 12.9443 152.086 12.9356 152.101 12.9325C152.115 12.9293 152.131 12.9319 152.143 12.9398C152.156 12.9476 152.165 12.9601 152.169 12.9745C152.216 13.1944 152.278 13.4092 152.333 13.6272C152.337 13.6421 152.334 13.658 152.326 13.6712C152.318 13.6844 152.305 13.694 152.29 13.6977C152.276 13.7015 152.26 13.6991 152.246 13.6912C152.233 13.6833 152.224 13.6704 152.22 13.6555C152.165 13.4364 152.104 13.22 152.055 12.999Z" fill="white"/>
<path fill-rule="evenodd" clip-rule="evenodd" d="M151.202 15.6688C151.199 15.6754 151.193 15.6812 151.187 15.6858C151.181 15.6905 151.174 15.6939 151.167 15.6959C151.16 15.6979 151.152 15.6984 151.144 15.6974C151.137 15.6964 151.129 15.6939 151.123 15.6901C151.116 15.6863 151.11 15.6812 151.106 15.6751C151.101 15.6691 151.098 15.6622 151.096 15.6548C151.094 15.6474 151.093 15.6397 151.094 15.6321C151.095 15.6245 151.098 15.6172 151.102 15.6106C151.403 15.0906 151.95 14.7765 152.518 14.6245C152.533 14.6205 152.548 14.6227 152.562 14.6304C152.575 14.6382 152.585 14.6509 152.589 14.6658C152.593 14.6807 152.591 14.6966 152.583 14.7099C152.575 14.7233 152.562 14.733 152.548 14.737C152.009 14.8808 151.488 15.1759 151.202 15.6676V15.6688Z" fill="white"/>
<path d="M160.742 16.297C160.815 15.8387 160.887 15.3463 160.942 14.9055C161.147 13.2383 161.206 11.8212 160.177 10.3925C159.317 9.19603 157.576 8.86221 156.242 9.33328L156.232 9.33716C156.094 9.38539 155.959 9.44118 155.827 9.50426C155.422 9.70161 155.052 9.97883 154.822 10.372C154.4 11.0892 154.661 12.057 155.312 12.5397C155.346 12.5649 155.381 12.5893 155.417 12.6126C155.412 12.6234 155.407 12.6351 155.402 12.6463C155.32 12.8378 155.282 13.0774 155.35 13.2791C155.418 13.4807 155.565 13.628 155.749 13.7288C155.832 13.7733 155.919 13.8088 156.009 13.8346C155.974 14.2035 155.907 14.5687 155.809 14.9261L155.796 14.9676C155.628 15.0346 155.479 15.1331 155.399 15.2611C155.322 15.3816 155.309 15.5286 155.395 15.6984C155.405 15.7182 155.416 15.7372 155.427 15.7569C155.422 15.7643 155.417 15.7717 155.412 15.7787C155.403 15.7912 155.399 15.8067 155.402 15.8219C155.404 15.8371 155.413 15.8507 155.425 15.8597C155.435 15.8671 155.447 15.871 155.459 15.8709C155.469 15.8709 155.478 15.8686 155.486 15.8644C155.494 15.8601 155.501 15.854 155.507 15.8465C155.681 15.605 155.817 15.3146 155.92 14.9586C156.019 14.6002 156.087 14.2338 156.123 13.8637C156.269 13.8951 156.42 13.9054 156.569 13.8944C156.564 14.0167 156.588 14.1385 156.639 14.2501C156.689 14.3617 156.765 14.46 156.86 14.5372C157.189 14.802 157.552 14.7675 157.868 14.6062C157.878 14.5976 157.885 14.5857 157.888 14.5725C157.891 14.5592 157.888 14.5455 157.882 14.5336C157.876 14.5218 157.865 14.5125 157.853 14.5074C157.84 14.5024 157.826 14.5018 157.814 14.5058C157.538 14.6469 157.22 14.6814 156.932 14.4496C156.848 14.3815 156.782 14.2941 156.739 14.195C156.696 14.0958 156.678 13.9878 156.686 13.88C156.869 13.835 157.133 13.6838 157.251 13.5384C157.322 13.4524 157.341 13.3651 157.301 13.2961C157.254 13.2139 157.169 13.1883 157.069 13.2104C156.952 13.2368 156.809 13.3376 156.718 13.4621C156.649 13.556 156.601 13.6644 156.58 13.7792C156.415 13.7947 156.248 13.7816 156.087 13.7404C155.989 13.7156 155.894 13.6786 155.804 13.6303C155.645 13.5431 155.516 13.4167 155.459 13.2449C155.401 13.0732 155.436 12.8619 155.507 12.6955C155.51 12.6886 155.514 12.682 155.516 12.675C155.781 12.8188 156.079 12.8828 156.38 12.787C156.486 12.7549 156.584 12.7006 156.667 12.6278C156.75 12.5549 156.817 12.4651 156.863 12.3644C156.926 12.2132 156.909 12.0771 156.839 11.9821C156.769 11.8872 156.645 11.8302 156.482 11.8449C156.392 11.8539 156.303 11.8739 156.218 11.9046C156.064 11.9594 155.919 12.0399 155.792 12.1427C155.663 12.2455 155.554 12.3707 155.471 12.5122C155.44 12.492 155.41 12.4711 155.38 12.4493C154.775 12.0004 154.527 11.1013 154.922 10.4332C155.141 10.0602 155.492 9.79854 155.877 9.61127C156.005 9.54964 156.136 9.49502 156.269 9.44766L156.279 9.44417C157.568 8.98899 159.25 9.30614 160.082 10.4615C161.09 11.8643 161.027 13.2566 160.825 14.8923C160.681 16.0632 160.407 17.5959 160.347 17.8882C160.344 17.8959 160.344 17.9039 160.345 17.9118C160.346 17.9197 160.349 17.9273 160.353 17.9341C160.357 17.941 160.362 17.9469 160.369 17.9515C160.375 17.9561 160.383 17.9593 160.391 17.9609C160.398 17.9625 160.407 17.9625 160.414 17.9609C160.422 17.9593 160.43 17.9561 160.436 17.9515C160.443 17.9469 160.448 17.941 160.452 17.9342C160.456 17.9274 160.459 17.9198 160.46 17.9119L160.462 17.9002C160.713 17.9002 160.92 17.8774 161.066 17.8289C161.255 17.7657 161.366 17.6738 161.419 17.561C161.587 17.207 161.167 16.6669 160.742 16.297ZM156.814 13.5291C156.888 13.4279 157.001 13.3434 157.097 13.3221C157.14 13.3124 157.18 13.3159 157.201 13.3523C157.205 13.362 157.207 13.3724 157.206 13.3829C157.205 13.3933 157.202 13.4033 157.196 13.412C157.173 13.4533 157.143 13.4901 157.107 13.5206C156.99 13.6234 156.854 13.7024 156.707 13.7532C156.728 13.6725 156.764 13.5964 156.814 13.5291ZM155.866 12.2314C155.983 12.1369 156.116 12.0628 156.258 12.0124C156.334 11.9848 156.414 11.9668 156.494 11.9589C156.608 11.9484 156.698 11.9825 156.747 12.0492C156.795 12.1159 156.802 12.2117 156.757 12.3175C156.718 12.4028 156.661 12.4788 156.59 12.5403C156.519 12.6018 156.436 12.6475 156.346 12.6742C156.075 12.7603 155.809 12.6994 155.571 12.5699C155.648 12.4402 155.748 12.3255 155.866 12.2314Z" fill="white"/>
<path d="M159.136 12.933C159.058 13.0159 158.604 13.8481 158.167 14.2587C158.155 14.2694 158.149 14.2841 158.148 14.2996C158.148 14.3151 158.154 14.3301 158.165 14.3413C158.175 14.3525 158.19 14.359 158.205 14.3594C158.221 14.3598 158.236 14.354 158.247 14.3433C158.687 13.9311 159.145 13.0954 159.222 13.0121C159.233 13.0007 159.238 12.9857 159.238 12.9703C159.237 12.9549 159.231 12.9404 159.219 12.9299C159.214 12.9244 159.207 12.9202 159.2 12.9174C159.193 12.9146 159.185 12.9133 159.177 12.9136C159.169 12.9139 159.162 12.9158 159.154 12.9191C159.147 12.9224 159.141 12.9271 159.136 12.933Z" fill="white"/>
<path fill-rule="evenodd" clip-rule="evenodd" d="M163.862 42.2292L165.374 43.6669C165.382 44.1577 165.378 44.4566 165.377 44.7525C163.414 46.2568 162.35 45.9362 162.051 45.2887C161.97 45.11 161.943 44.9117 161.973 44.718C162.135 43.6262 162.566 42.5634 163.175 41.5751C164.144 40.0033 165.565 38.6192 167.075 37.6026C165.511 38.9596 164.521 40.3352 163.862 42.2284L163.862 42.2292ZM173.71 36.4546C172.936 36.5886 172.183 36.8296 171.475 37.1707L170.732 35.9521C171.885 35.7063 173.024 35.9223 173.71 36.4561V36.4546Z" fill="#030303"/>
<path fill-rule="evenodd" clip-rule="evenodd" d="M167.209 45.3285C167.215 45.3336 167.22 45.3398 167.224 45.347C167.228 45.3541 167.23 45.3619 167.23 45.3698C167.231 45.3778 167.23 45.3858 167.227 45.3933C167.224 45.4008 167.22 45.4077 167.214 45.4135C167.209 45.4193 167.202 45.4239 167.195 45.427C167.188 45.4301 167.18 45.4317 167.172 45.4316C167.164 45.4315 167.156 45.4298 167.148 45.4265C167.141 45.4233 167.135 45.4185 167.129 45.4126L165.338 43.7099C165.333 43.7047 165.328 43.6983 165.325 43.6914C165.322 43.6844 165.321 43.6768 165.32 43.6692C165.32 43.6615 165.321 43.6539 165.324 43.6468C165.327 43.6396 165.331 43.6331 165.336 43.6275C165.342 43.622 165.348 43.6175 165.355 43.6144C165.362 43.6113 165.369 43.6096 165.377 43.6094C165.385 43.6092 165.392 43.6105 165.4 43.6133C165.407 43.616 165.413 43.6201 165.419 43.6254L167.209 45.3285Z" fill="#030303"/>
<path fill-rule="evenodd" clip-rule="evenodd" d="M167.406 47.315C168.686 47.5864 169.528 46.4958 170.115 45.3683C171.39 42.9168 172.139 40.6925 173.844 38.4527C174.676 37.3589 176.582 36.0977 177.191 36.6754C177.898 37.3453 177.526 38.7946 176.292 41.2019C174.772 44.1687 171.652 47.4054 168.928 47.4829C168.416 47.4974 167.903 47.4408 167.406 47.3147V47.315Z" fill="#030303"/>
<mask id="mask2_368_276" style="mask-type:luminance" maskUnits="userSpaceOnUse" x="167" y="36" width="11" height="12">
<path d="M167.422 47.3155C168.701 47.5869 169.544 46.4963 170.13 45.3688C171.406 42.9173 172.154 40.693 173.859 38.4531C174.692 37.3594 176.597 36.0982 177.207 36.6759C177.914 37.3458 177.541 38.7951 176.308 41.2024C174.788 44.1692 171.667 47.4059 168.944 47.4834C168.431 47.4979 167.919 47.4413 167.422 47.3151V47.3155Z" fill="white"/>
</mask>
<g mask="url(#mask2_368_276)">
<path d="M178.594 37.7153C176.639 37.2566 174.701 37.3664 172.843 38.1185M178.688 39.2572C176.102 38.7144 173.753 39.0459 171.287 39.8908M178.003 40.9085C175.746 40.2765 173.168 40.7011 171.019 41.563M177.072 42.63C174.45 42.0519 171.694 42.7851 169.32 43.8831M175.81 44.3049C173.463 44.2235 170.966 44.8012 168.838 45.7864M173.173 46.4742C171.627 46.4032 170.159 46.6618 168.684 47.1042C167.898 47.3399 167.115 47.5931 166.406 48.0138" stroke="white" stroke-width="0.193858" stroke-linecap="round" stroke-linejoin="round"/>
</g>
<path fill-rule="evenodd" clip-rule="evenodd" d="M167.435 47.2587C168.055 47.3905 168.567 47.1908 168.997 46.8229C169.436 46.4476 169.788 45.8985 170.078 45.3418C171.355 42.8872 172.105 40.6601 173.812 38.4176C174.402 37.6422 175.524 36.7865 176.355 36.5422C176.731 36.4317 177.05 36.448 177.247 36.6333C177.541 36.9121 177.66 37.32 177.609 37.8705C177.535 38.6684 177.105 39.7754 176.359 41.2289C175.444 43.0163 173.949 44.9002 172.31 46.1389C171.211 46.9694 170.045 47.5095 168.946 47.5417C168.428 47.5564 167.911 47.4992 167.409 47.3719C167.303 47.3492 167.2 47.3192 167.098 47.2819C167.094 47.2803 167.09 47.2781 167.086 47.2753C166.487 47.0714 165.95 46.7387 165.632 46.2386C165.435 45.9249 165.331 45.5621 165.331 45.1917C165.328 45.0324 165.328 44.8924 165.328 44.7521C165.328 44.7366 165.334 44.7218 165.345 44.7109C165.356 44.7 165.371 44.6939 165.387 44.6939C165.394 44.6939 165.402 44.6953 165.409 44.6982C165.416 44.7012 165.422 44.7054 165.428 44.7109C165.433 44.7163 165.437 44.7227 165.44 44.7298C165.443 44.7369 165.445 44.7444 165.444 44.7521C165.444 44.892 165.444 45.0312 165.447 45.1898C165.447 45.5383 165.546 45.8797 165.731 46.175C166.089 46.7395 166.742 47.0772 167.437 47.2575L167.435 47.2587ZM168.124 47.3878C168.395 47.4209 168.668 47.4338 168.941 47.4265C170.02 47.3951 171.161 46.8616 172.237 46.0474C173.863 44.8188 175.345 42.9496 176.253 41.177C176.99 39.7424 177.416 38.6494 177.49 37.8608C177.537 37.3537 177.435 36.9761 177.164 36.719C176.993 36.5573 176.714 36.5585 176.386 36.655C175.572 36.8935 174.479 37.7325 173.904 38.4893C172.202 40.726 171.455 42.948 170.182 45.3965C169.886 45.9668 169.523 46.5278 169.074 46.9124C168.793 47.1524 168.479 47.3242 168.126 47.3889L168.124 47.3878Z" fill="#030303"/>
<path fill-rule="evenodd" clip-rule="evenodd" d="M169.955 38.2256C169.943 38.2356 169.928 38.2405 169.913 38.2392C169.897 38.2379 169.883 38.2306 169.873 38.2188C169.863 38.2071 169.858 38.1918 169.86 38.1764C169.861 38.1611 169.868 38.1468 169.88 38.1368C170.36 37.7321 170.889 37.3898 171.454 37.1179C171.461 37.1146 171.469 37.1126 171.476 37.1122C171.484 37.1117 171.492 37.1128 171.499 37.1153C171.506 37.1178 171.513 37.1217 171.519 37.1268C171.524 37.1318 171.529 37.138 171.532 37.1449C171.536 37.1517 171.537 37.1592 171.538 37.1668C171.538 37.1745 171.537 37.1821 171.535 37.1893C171.532 37.1965 171.528 37.2032 171.523 37.2089C171.518 37.2146 171.512 37.2193 171.505 37.2226C170.948 37.4902 170.427 37.8272 169.954 38.2256H169.955ZM173.725 36.5112C173.717 36.5125 173.709 36.5123 173.702 36.5106C173.694 36.5089 173.687 36.5057 173.681 36.5012C173.668 36.4922 173.659 36.4785 173.657 36.4631C173.654 36.4476 173.658 36.4318 173.667 36.419C173.676 36.4062 173.689 36.3975 173.705 36.3948C174.471 36.2583 175.253 36.2306 176.028 36.3126C176.366 36.3495 176.702 36.4121 177.031 36.4999C177.046 36.5039 177.059 36.5137 177.067 36.5271C177.074 36.5404 177.077 36.5563 177.073 36.5712C177.069 36.5862 177.059 36.5989 177.045 36.6066C177.032 36.6143 177.016 36.6164 177.001 36.6123C176.678 36.526 176.348 36.4644 176.015 36.4282C175.252 36.3475 174.481 36.3748 173.725 36.5092V36.5112Z" fill="#030303"/>
<path fill-rule="evenodd" clip-rule="evenodd" d="M165.629 46.2445C165.62 46.2325 165.616 46.2174 165.618 46.2024C165.619 46.1873 165.627 46.1736 165.638 46.164C165.65 46.1544 165.665 46.1497 165.68 46.151C165.695 46.1523 165.709 46.1594 165.719 46.1708C166.425 47.0319 167.542 47.0502 168.243 46.5112C169.247 45.7358 169.654 44.4346 170.244 42.9415C171.112 40.7479 172.088 38.798 173.281 37.5911C174.085 36.7769 174.987 36.3039 176.019 36.3116C176.035 36.3116 176.05 36.3177 176.061 36.3287C176.071 36.3396 176.078 36.3544 176.078 36.3698C176.078 36.3852 176.071 36.4 176.061 36.4109C176.05 36.4218 176.035 36.4279 176.019 36.4279C175.018 36.4194 174.144 36.8839 173.364 37.6717C172.181 38.8674 171.214 40.8041 170.353 42.9811C169.754 44.4967 169.334 45.8145 168.314 46.6004C167.571 47.1735 166.381 47.1572 165.63 46.2414L165.629 46.2445Z" fill="#030303"/>
<path fill-rule="evenodd" clip-rule="evenodd" d="M152.549 17.8784C153.741 17.3914 154.637 16.25 155.397 15.2617C155.32 15.3823 155.307 15.5292 155.394 15.6991C155.413 15.7378 155.435 15.7766 155.457 15.8134C156.25 17.1158 158.972 17.8757 160.402 17.8982C160.68 17.9028 160.906 17.8796 161.065 17.8272C161.254 17.764 161.366 17.6721 161.418 17.5593C161.224 18.1952 161.041 18.8566 160.739 19.5014C160.564 19.5835 160.395 19.6778 160.233 19.7836C160.097 19.8716 159.964 19.9659 159.836 20.0651C157.709 18.8209 155.162 17.8234 152.547 17.8772L152.549 17.8784Z" fill="white" stroke="#030303" stroke-width="0.0775434" stroke-miterlimit="10"/>
<path fill-rule="evenodd" clip-rule="evenodd" d="M160.622 19.5595C160.489 19.6272 160.359 19.702 160.234 19.7836C160.098 19.8716 159.966 19.9658 159.837 20.0651C157.833 18.8926 155.455 17.9388 153 17.8783C155.297 17.5837 158.42 18.6034 160.622 19.5599V19.5595Z" fill="#030303" stroke="#030303" stroke-width="0.0387717" stroke-miterlimit="10"/>
<path fill-rule="evenodd" clip-rule="evenodd" d="M154.654 23.1171C154.177 23.1109 153.704 23.33 153.287 23.6519C154.124 23.8648 155.2 24.0191 156.015 23.7682C155.735 23.4175 155.328 23.1902 154.883 23.135C154.885 23.1221 154.882 23.109 154.875 23.0979C154.869 23.0867 154.858 23.078 154.846 23.0733C153.494 22.5405 152.307 20.9898 152.029 19.6256C152.026 19.6105 152.017 19.5973 152.004 19.5887C151.991 19.5802 151.976 19.5772 151.961 19.5803C151.945 19.5834 151.932 19.5923 151.924 19.6052C151.915 19.6181 151.912 19.6338 151.915 19.6489C152.19 20.9956 153.331 22.5192 154.654 23.1171Z" fill="#030303"/>
<path fill-rule="evenodd" clip-rule="evenodd" d="M163.069 21.7425C162.977 21.5663 162.836 21.4208 162.663 21.3237C162.862 21.0101 163.016 20.6258 163.031 20.2703C163.048 19.8826 162.9 19.5271 162.468 19.3293C162.331 19.2675 162.186 19.2251 162.038 19.2033C161.589 19.1343 161.122 19.2537 160.703 19.4487C160.383 19.6124 160.079 19.8061 159.795 20.0272C159.784 20.0371 159.776 20.0513 159.775 20.0666C159.773 20.082 159.778 20.0973 159.788 20.1092C159.798 20.1211 159.812 20.1286 159.827 20.13C159.843 20.1314 159.858 20.1266 159.87 20.1168C160.145 19.9017 160.441 19.7133 160.752 19.5542C161.151 19.3689 161.594 19.2525 162.02 19.3185C162.158 19.3386 162.292 19.3777 162.42 19.4348C162.8 19.6089 162.929 19.9221 162.915 20.2653C162.901 20.6084 162.749 20.974 162.557 21.2733C162.43 21.2231 162.294 21.1998 162.157 21.2047C162.021 21.2097 161.887 21.2428 161.764 21.302C161.681 21.341 161.604 21.3899 161.534 21.4478C161.405 21.5645 161.311 21.7147 161.262 21.8816C161.23 22.0135 161.254 22.136 161.373 22.2097C161.475 22.2736 161.613 22.2628 161.756 22.2034C161.95 22.1259 162.152 21.9596 162.282 21.825C162.298 21.8076 162.316 21.7882 162.334 21.7669C162.424 21.6634 162.531 21.5199 162.6 21.4206C162.757 21.507 162.885 21.638 162.968 21.7971C163.068 21.9812 163.106 22.1922 163.079 22.3996C163.018 22.8796 162.648 23.3301 162.273 23.6174C162.242 23.6415 162.205 23.669 162.164 23.6977C162.005 23.5593 161.829 23.474 161.597 23.5639C161.345 23.6613 161.318 23.9555 161.539 24.0222C161.654 24.0518 161.775 24.0419 161.883 23.9939C161.977 23.9545 162.067 23.9056 162.151 23.8477C162.325 24.0766 162.406 24.3637 162.375 24.6499C162.234 25.777 161.283 26.8634 159.903 26.9103C160.009 26.6862 160.107 26.4562 160.197 26.2202C160.203 26.2057 160.202 26.1897 160.196 26.1756C160.189 26.1616 160.178 26.1506 160.163 26.1452C160.149 26.1397 160.133 26.1402 160.119 26.1466C160.105 26.1529 160.094 26.1646 160.088 26.1791C159.989 26.4419 159.879 26.6973 159.758 26.9452C158.997 28.5104 157.826 29.7546 156.34 30.4505C156.333 30.4537 156.327 30.4582 156.322 30.4639C156.316 30.4695 156.312 30.4761 156.31 30.4834C156.307 30.4906 156.306 30.4982 156.306 30.5059C156.307 30.5136 156.308 30.5211 156.312 30.5281C155.311 30.9833 154.171 31.1977 152.92 31.0996C151.974 29.9054 151.525 28.308 151.513 26.7913C151.291 27.9501 151.402 29.1479 151.832 30.2466C151.941 30.5251 152.091 30.7863 152.275 31.022C152.728 31.6055 153.384 32.053 154.07 32.1487C152.286 32.2615 150.8 31.4946 149.288 30.4781C148.523 29.9632 147.746 29.4312 147.224 28.6523C147.219 28.646 147.214 28.6405 147.208 28.6363C147.201 28.6321 147.194 28.6292 147.187 28.6277C147.179 28.6263 147.171 28.6263 147.164 28.6278C147.156 28.6293 147.149 28.6323 147.143 28.6366C147.137 28.6409 147.131 28.6464 147.127 28.6527C147.123 28.6591 147.12 28.6663 147.118 28.6738C147.117 28.6813 147.117 28.689 147.118 28.6965C147.12 28.704 147.123 28.7111 147.127 28.7174C147.657 29.5076 148.445 30.0512 149.224 30.5742C150.908 31.7048 152.566 32.5267 154.621 32.2022C154.636 32.1998 154.649 32.1913 154.658 32.1788C154.667 32.1663 154.671 32.1508 154.669 32.1355C155.495 31.9805 156.021 31.2547 156.341 30.5572C156.349 30.5606 156.357 30.5624 156.365 30.5624C156.374 30.5624 156.382 30.5606 156.39 30.5572C157.889 29.855 159.074 28.6046 159.847 27.0289C161.321 27.0103 162.341 25.8592 162.491 24.6639C162.523 24.3492 162.435 24.0341 162.245 23.7811C162.281 23.7555 162.314 23.7307 162.342 23.7093C162.741 23.4042 163.128 22.923 163.193 22.4136C163.223 22.1824 163.18 21.9476 163.069 21.7425ZM162.244 21.6905C162.227 21.7103 162.211 21.7293 162.195 21.7444C162.076 21.8692 161.888 22.0224 161.709 22.0961C161.606 22.1391 161.506 22.1573 161.432 22.1108C161.358 22.0643 161.355 21.989 161.373 21.9088C161.415 21.766 161.496 21.6377 161.606 21.5381C161.669 21.4861 161.738 21.4423 161.812 21.4075C161.917 21.3569 162.031 21.3277 162.147 21.3216C162.263 21.3156 162.38 21.3328 162.489 21.3722C162.423 21.4672 162.326 21.5963 162.244 21.6905ZM161.839 23.8854C161.755 23.9239 161.661 23.9329 161.571 23.9109C161.452 23.8749 161.502 23.7245 161.637 23.6721C161.81 23.6054 161.943 23.6667 162.063 23.7656C161.993 23.8128 161.918 23.853 161.839 23.8854Z" fill="#030303"/>
<path d="M162.915 2.87631C162.868 2.76426 162.77 2.67548 162.623 2.61306C161.428 1.61973 159.881 1.01218 158.148 0.860972C156.538 0.719068 154.818 0.964104 153.175 1.56971H153.173C153.132 1.46813 153.108 1.40687 153.068 1.31033C152.86 0.806304 152.68 0.928047 152.664 0.936964C152.586 0.979613 152.495 1.05871 152.629 1.4662C152.66 1.56119 152.699 1.6492 152.738 1.7376C151.018 2.44905 149.553 3.49356 148.506 4.76449C147.374 6.13661 146.796 7.70841 146.835 9.30928C146.811 9.40376 146.816 9.50369 146.852 9.59464C146.968 9.87767 147.39 9.97731 147.921 9.97731C148.432 9.97731 149.046 9.88542 149.597 9.77609C151.155 9.46592 153.154 8.82851 155.225 7.98097C155.24 7.97511 155.251 7.96381 155.257 7.94956C155.263 7.93531 155.263 7.91927 155.257 7.90498C155.251 7.89068 155.24 7.8793 155.226 7.87334C155.211 7.86738 155.195 7.86732 155.181 7.87318C153.116 8.7184 151.125 9.35348 149.574 9.6621C148.068 9.96142 147.115 9.92071 146.96 9.54966C146.933 9.47892 146.929 9.40141 146.95 9.32867C146.954 9.31316 146.959 9.29726 146.964 9.28098L146.97 9.26431C146.974 9.25345 146.978 9.24221 146.983 9.23096C146.987 9.21972 146.989 9.21739 146.992 9.21041C146.995 9.20343 147.001 9.18986 147.006 9.1794C147.012 9.16893 147.014 9.16389 147.018 9.15613C147.023 9.14838 147.029 9.13597 147.034 9.12589L147.049 9.10147C147.055 9.091 147.061 9.08092 147.067 9.07045L147.084 9.04447C147.091 9.034 147.098 9.02392 147.105 9.01307L147.124 8.98631C147.132 8.97546 147.139 8.96499 147.147 8.95413L147.168 8.92661L147.194 8.89365C147.201 8.88396 147.21 8.87465 147.217 8.86496L147.245 8.83123C147.253 8.82154 147.262 8.81184 147.271 8.80215L147.301 8.76764C147.31 8.75756 147.319 8.74748 147.329 8.73779L147.361 8.70212L147.391 8.67149C147.403 8.65947 147.414 8.64745 147.426 8.63543L147.458 8.60403L147.496 8.56719L147.531 8.53501L147.569 8.49624L147.606 8.4629L147.647 8.42413L147.686 8.38962L147.721 8.35899L147.788 8.35666L147.862 8.35434H147.894C149.395 8.2768 151.899 7.58472 154.608 6.50029L154.624 6.49408C154.672 6.47508 154.72 6.45531 154.769 6.43592L154.905 6.38048L155.004 6.33977L155.257 6.23509C155.432 6.1622 155.605 6.08827 155.778 6.01332L155.782 6.01138L156.035 5.90088L156.067 5.88653L156.289 5.78767L156.355 5.75781L156.542 5.67329L156.616 5.63917L156.791 5.55814L156.871 5.51937L157.039 5.44182L157.12 5.40305C157.174 5.3772 157.228 5.35136 157.283 5.32551L157.371 5.28286L157.523 5.20842L157.612 5.165L157.761 5.09094L157.849 5.04713L157.996 4.97308L158.084 4.9281L158.226 4.85521L158.315 4.81179C158.362 4.78775 158.408 4.76371 158.454 4.73928C158.484 4.72416 158.512 4.70866 158.541 4.69315L158.677 4.62142L158.763 4.57451C158.807 4.55086 158.852 4.5272 158.895 4.50317L158.982 4.45548L159.11 4.3853L159.197 4.33645L159.319 4.26782L159.406 4.2182L159.522 4.15073L159.608 4.10072L159.724 4.03403L159.809 3.98363L159.919 3.91772L160.002 3.86693L160.109 3.80218L160.191 3.75139L160.292 3.68741L160.373 3.63662C160.406 3.61569 160.439 3.59475 160.471 3.57381L160.549 3.52186L160.642 3.46099L160.72 3.40865L160.809 3.34933L160.886 3.2966C160.915 3.27721 160.943 3.25783 160.971 3.23844L161.045 3.1861L161.126 3.1291L161.198 3.07676L161.275 3.02132L161.346 2.9682C161.369 2.95037 161.393 2.93253 161.416 2.9147L161.485 2.86158L161.551 2.81002C161.573 2.79218 161.595 2.77435 161.616 2.7569L161.678 2.7065C161.7 2.68866 161.721 2.67121 161.742 2.65338L161.791 2.61189C161.808 2.61189 161.824 2.61189 161.841 2.61189C161.864 2.61189 161.887 2.61189 161.91 2.61189H161.944L162.03 2.61461H162.049C162.08 2.61461 162.11 2.6181 162.139 2.62081H162.156C162.185 2.62391 162.214 2.62701 162.241 2.6305L162.26 2.6336C162.286 2.63709 162.311 2.64097 162.335 2.64524L162.362 2.65105C162.382 2.65532 162.401 2.65919 162.421 2.66385L162.46 2.6747L162.499 2.68595C162.524 2.69409 162.547 2.70262 162.57 2.71192C162.692 2.76271 162.772 2.83173 162.808 2.91702C162.966 3.29582 162.296 4.02318 160.97 4.91259C159.603 5.82954 157.688 6.82286 155.581 7.70918C155.567 7.71514 155.555 7.72652 155.549 7.74081C155.544 7.7551 155.544 7.77113 155.55 7.78537C155.556 7.79961 155.567 7.8109 155.581 7.81675C155.596 7.8226 155.612 7.82254 155.626 7.81658C157.74 6.93142 159.661 5.93616 161.035 5.0134C162.826 3.81303 163.045 3.18842 162.915 2.87631ZM158.138 0.976511C159.745 1.11841 161.19 1.65424 162.335 2.53125C162.31 2.52698 162.284 2.52311 162.257 2.51962H162.247C162.181 2.51109 162.111 2.50488 162.036 2.50101H162.017C161.982 2.50101 161.946 2.49829 161.909 2.49752H161.885C161.846 2.49752 161.807 2.49752 161.766 2.49752C161.725 2.49752 161.679 2.49984 161.634 2.50178L161.563 2.50527L161.508 2.50837C160.918 2.54714 160.18 2.67393 159.339 2.88058C158.021 2.00667 156.369 1.55072 154.579 1.55072C154.183 1.55114 153.788 1.57275 153.395 1.61547C154.968 1.06181 156.604 0.841586 158.138 0.976899V0.976511ZM151.706 5.7675C150.769 6.23276 149.929 6.69802 149.205 7.15242C149.504 5.18322 150.754 3.35786 152.747 1.97682C152 3.16943 151.65 4.44346 151.706 5.7675ZM152.941 1.89036L154.099 4.6726C153.308 5.00642 152.541 5.3573 151.82 5.71322C151.774 4.37522 152.15 3.09033 152.941 1.88997V1.89036ZM155.475 4.11933L155.466 4.12243L155.187 4.2306L155.139 4.24921L154.895 4.34614L154.824 4.37444L154.591 4.46827L154.513 4.49968L154.227 4.61793L154.21 4.6253H154.206L153.053 1.85662C154.423 2.13617 155.715 2.7759 156.709 3.66842C156.307 3.80761 155.894 3.95881 155.475 4.11894V4.11933ZM156.835 3.62577C155.837 2.71425 154.539 2.0563 153.158 1.75931C155.425 1.46271 157.556 1.87213 159.187 2.91741C158.464 3.10041 157.671 3.33847 156.835 3.62538V3.62577ZM148.596 4.83854C149.604 3.61724 151.003 2.60491 152.647 1.90431C150.614 3.32451 149.351 5.20648 149.076 7.23423C148.673 7.48789 148.283 7.7621 147.908 8.0558L147.906 8.05774C147.865 8.09069 147.825 8.12326 147.785 8.15544L147.77 8.16785C147.731 8.19886 147.697 8.22949 147.661 8.25974H147.659C147.633 8.28261 147.607 8.3051 147.582 8.32797L147.561 8.34658C147.541 8.36481 147.521 8.38303 147.501 8.40125L147.486 8.41482C147.463 8.43653 147.44 8.45825 147.418 8.47957L147.402 8.49547L147.35 8.54626L147.333 8.56332C147.312 8.58425 147.292 8.60519 147.273 8.62574L147.265 8.63388C147.248 8.6521 147.232 8.66994 147.216 8.68777L147.2 8.70522C147.184 8.72267 147.169 8.74012 147.155 8.75717L147.149 8.76648C147.132 8.78625 147.117 8.80525 147.101 8.82464L147.089 8.84053C147.077 8.85565 147.065 8.87077 147.054 8.88551C147.051 8.89016 147.047 8.8952 147.044 8.89985C147.03 8.91846 147.017 8.93669 147.005 8.95491L146.998 8.96654C146.988 8.98127 146.979 8.99601 146.969 9.01074L146.96 9.02586L146.953 9.0371C146.98 7.55797 147.545 6.1118 148.596 4.83854Z" fill="white"/>
<path d="M164.053 28.1603C163.928 27.847 163.621 27.0974 163.49 27.03C163.455 27.0117 163.392 27.0125 163.316 27.0261L162.459 24.8697C162.457 24.8626 162.452 24.8561 162.447 24.8506C162.442 24.8452 162.435 24.8408 162.428 24.8378C162.421 24.8347 162.414 24.8331 162.406 24.833C162.398 24.8329 162.391 24.8343 162.384 24.8371C162.377 24.84 162.37 24.8442 162.365 24.8495C162.359 24.8548 162.355 24.8612 162.352 24.8682C162.349 24.8752 162.347 24.8828 162.347 24.8904C162.347 24.8981 162.348 24.9056 162.351 24.9127L162.381 24.9884C162.338 25.1513 162.28 25.3097 162.206 25.4614C162.196 25.4569 162.184 25.4556 162.173 25.4576C162.162 25.4596 162.151 25.4648 162.143 25.4727C162.135 25.4805 162.129 25.4906 162.126 25.5017C162.124 25.5128 162.125 25.5244 162.129 25.5351L162.805 27.2266C162.767 27.2482 162.735 27.2788 162.711 27.3158C162.633 27.4825 162.922 28.2076 163.033 28.5109C163.119 28.7501 163.465 29.6571 163.692 29.8037C163.965 29.9817 164.382 29.8812 164.434 29.5276C164.472 29.2484 164.154 28.4139 164.053 28.1603ZM162.459 26.0512C162.536 25.945 162.604 25.8325 162.672 25.7209L163.203 27.0532C163.101 27.083 163.002 27.1219 162.907 27.1696L162.459 26.0512Z" fill="#030303"/>
<path d="M154.199 5.26044C154.197 5.25286 154.193 5.24587 154.188 5.2399C154.182 5.23393 154.176 5.2291 154.169 5.22572C154.162 5.22234 154.154 5.22047 154.146 5.22024C154.138 5.22001 154.13 5.22141 154.123 5.22436C154.115 5.22731 154.108 5.23175 154.103 5.23741C154.097 5.24306 154.093 5.2498 154.09 5.25722C154.087 5.26464 154.086 5.27257 154.086 5.28053C154.086 5.28848 154.088 5.2963 154.092 5.30348L155.789 9.57904C155.792 9.58633 155.796 9.59302 155.801 9.5987C155.807 9.60439 155.813 9.60896 155.82 9.61214C155.827 9.61533 155.835 9.61706 155.843 9.61724C155.85 9.61743 155.858 9.61605 155.865 9.61321C155.872 9.61036 155.879 9.60609 155.885 9.60066C155.89 9.59523 155.895 9.58875 155.898 9.58159C155.901 9.57443 155.902 9.56674 155.902 9.55897C155.902 9.55121 155.901 9.54353 155.897 9.53638L154.199 5.26044Z" fill="white"/>
<path d="M158.496 14.8725L158.26 14.2784C158.257 14.2696 158.251 14.2618 158.244 14.2556C158.237 14.2494 158.228 14.2452 158.219 14.2431C158.21 14.241 158.2 14.2413 158.191 14.2438C158.182 14.2463 158.173 14.251 158.166 14.2575C158.145 14.2776 158.123 14.2962 158.102 14.3148C158.016 14.3885 157.921 14.4523 157.821 14.5049C157.808 14.5115 157.798 14.5226 157.793 14.5361C157.788 14.5497 157.788 14.5646 157.793 14.5781L158.132 15.4312L159.931 19.9647C159.934 19.9718 159.938 19.9782 159.944 19.9837C159.949 19.9892 159.955 19.9936 159.962 19.9966C159.969 19.9996 159.977 20.0012 159.984 20.0014C159.992 20.0015 160 20.0001 160.007 19.9972C160.014 19.9944 160.02 19.9902 160.026 19.9849C160.031 19.9795 160.036 19.9732 160.039 19.9662C160.042 19.9591 160.043 19.9516 160.043 19.944C160.044 19.9363 160.042 19.9287 160.039 19.9216L158.254 15.42C158.339 15.32 158.407 15.2064 158.455 15.0838L160.305 19.7398C160.308 19.7469 160.312 19.7533 160.317 19.7588C160.323 19.7643 160.329 19.7687 160.336 19.7717C160.343 19.7747 160.351 19.7763 160.358 19.7764C160.366 19.7766 160.374 19.7752 160.381 19.7723C160.388 19.7695 160.394 19.7653 160.4 19.76C160.405 19.7546 160.41 19.7483 160.413 19.7413C160.416 19.7342 160.417 19.7267 160.417 19.719C160.417 19.7114 160.416 19.7038 160.413 19.6967L158.496 14.8725Z" fill="white"/>
<path d="M154.705 5.3514C154.699 5.33788 154.688 5.32723 154.674 5.32164C154.66 5.31606 154.645 5.31596 154.631 5.32137C154.617 5.32678 154.606 5.33729 154.599 5.35073C154.593 5.36418 154.592 5.37954 154.597 5.39367L156.195 9.41213C156.197 9.41921 156.202 9.42567 156.207 9.43114C156.212 9.4366 156.219 9.44098 156.226 9.444C156.232 9.44702 156.24 9.44864 156.248 9.44877C156.255 9.44889 156.263 9.44751 156.27 9.44471C156.277 9.44191 156.283 9.43774 156.289 9.43244C156.294 9.42715 156.299 9.42082 156.302 9.41384C156.305 9.40685 156.306 9.39934 156.307 9.39173C156.307 9.38412 156.305 9.37656 156.302 9.36948L154.705 5.3514Z" fill="white"/>
</g>
<defs>
<filter id="filter0_f_368_276" x="134.123" y="7.65174" width="63.1448" height="53.72" filterUnits="userSpaceOnUse" color-interpolation-filters="sRGB">
<feFlood flood-opacity="0" result="BackgroundImageFix"/>
<feBlend mode="normal" in="SourceGraphic" in2="BackgroundImageFix" result="shape"/>
<feGaussianBlur stdDeviation="5.91901" result="effect1_foregroundBlur_368_276"/>
</filter>
<filter id="filter1_f_368_276" x="103.824" y="15.9347" width="60.7976" height="57.7775" filterUnits="userSpaceOnUse" color-interpolation-filters="sRGB">
<feFlood flood-opacity="0" result="BackgroundImageFix"/>
<feBlend mode="normal" in="SourceGraphic" in2="BackgroundImageFix" result="shape"/>
<feGaussianBlur stdDeviation="8.88884" result="effect1_foregroundBlur_368_276"/>
</filter>
<filter id="filter2_f_368_276" x="116.269" y="-1.84361" width="66.8444" height="63.2883" filterUnits="userSpaceOnUse" color-interpolation-filters="sRGB">
<feFlood flood-opacity="0" result="BackgroundImageFix"/>
<feBlend mode="normal" in="SourceGraphic" in2="BackgroundImageFix" result="shape"/>
<feGaussianBlur stdDeviation="8.88884" result="effect1_foregroundBlur_368_276"/>
</filter>
<filter id="filter3_f_368_276" x="153.849" y="22.4066" width="56.387" height="48.9202" filterUnits="userSpaceOnUse" color-interpolation-filters="sRGB">
<feFlood flood-opacity="0" result="BackgroundImageFix"/>
<feBlend mode="normal" in="SourceGraphic" in2="BackgroundImageFix" result="shape"/>
<feGaussianBlur stdDeviation="5.91901" result="effect1_foregroundBlur_368_276"/>
</filter>
<clipPath id="clip0_368_276">
<rect width="39.5969" height="47.2884" fill="white" transform="translate(139.203 0.822754)"/>
</clipPath>
</defs>
</svg>
